<?xml version="1.0" encoding="UTF-8"?>
<svg version="1.1" xmlns="http://www.w3.org/2000/svg" width="347" height="374">
<path d="M0 0 C8.12279681 5.23023108 13.77980358 11.44950895 17.375 20.4375 C18.74931844 28.27111513 17.93511381 34.73882728 16 42.375 C12.56013471 56.48381051 14.15965561 64.36486458 20.671875 77.23046875 C25.22446788 86.31190503 28.07780835 96.03955234 30 106 C32.81816844 106.98883103 35.05870676 107.75575833 38 108 C41.2028433 106.38596552 41.2028433 106.38596552 43.15625 105.04296875 C47.21417937 102.74748752 51.59840243 102.48314412 56.10546875 103.453125 C62.76593815 106.08124059 66.09811973 111.72486804 69 118 C80.70900379 151.00273638 72.87270233 191.55442711 58.34375 222.53125 C53.10680524 232.71948798 46.47398692 244.17533769 35 248 C29.81276796 248.61321929 25.12526323 248.49366446 20.625 245.50390625 C12.39606662 237.88818666 9.7139332 225.6369303 8 215 C0.36614394 212.8213073 -7.26905179 210.64734661 -14.9052124 208.47674561 C-17.63187167 207.70167404 -20.35829146 206.92576805 -23.08453369 206.14923096 C-37.42188486 202.06681554 -51.7637088 198.02042599 -66.1796875 194.22265625 C-67.27009338 193.93403214 -68.36049927 193.64540802 -69.48394775 193.34803772 C-74.56523224 192.00444968 -79.64970136 190.67669866 -84.7421875 189.3762207 C-101.60196261 184.99004835 -117.42427777 179.5719349 -126.9375 163.9375 C-129.64199967 158.94697982 -131.83169352 154.39418077 -132.1171875 148.63671875 C-132.42883728 142.59621263 -133.60324908 139.73489508 -137.43359375 135.1015625 C-143.59337358 126.83731924 -143.94848732 116.9267821 -143 107 C-142.34879656 104.2783943 -141.58514705 101.74903918 -140.55859375 99.1484375 C-139.82550334 96.32885899 -139.97859325 94.73115283 -141 92 C-143.1721379 90.3702068 -143.1721379 90.3702068 -145.9375 89.1875 C-160.10468092 82.00310812 -172.24318344 70.45960353 -178.375 55.6875 C-180.34778021 44.04809673 -179.16886784 33.62913807 -172.3125 23.8125 C-164.535085 14.34349723 -156.20704195 8.92278551 -144 7 C-118.02677326 5.18187413 -93.64069224 13.82385952 -71.39697266 26.86547852 C-68.8394066 28.28520884 -68.8394066 28.28520884 -65 28 C-63.46131919 26.4976194 -63.46131919 26.4976194 -62.125 24.375 C-47.76907823 4.94685748 -24.91021144 -13.48037357 0 0 Z M-41.41796875 43.96484375 C-43.40496807 46.80713937 -45.36240179 49.66664689 -47.28271484 52.55444336 C-47.72309082 53.21581299 -48.1634668 53.87718262 -48.6171875 54.55859375 C-49.00503418 55.14954834 -49.39288086 55.74050293 -49.79248047 56.34936523 C-52.2081681 59.65152133 -54.31562115 61.3545581 -58.1875 62.6875 C-58.90292969 62.93886719 -59.61835938 63.19023437 -60.35546875 63.44921875 C-60.89816406 63.63097656 -61.44085938 63.81273437 -62 64 C-59.05511575 66.45407021 -55.92483663 68.0721504 -52.46655273 69.70117188 C-38.01840799 76.51458436 -26.01256016 85.75937131 -20 101 C-15.79632403 113.76296802 -15.57814938 126.37912501 -21.2890625 138.8046875 C-26.86372264 148.61251202 -33.59965477 154.53911965 -44.265625 158.0859375 C-57.62151468 161.35505694 -70.8563136 158.63403847 -82.83203125 152.33203125 C-86.35861524 150.16524721 -89.12082285 147.7583543 -91 144 C-91.55334456 138.5836081 -91.50285843 134.41100691 -88 130 C-85.16547858 126.69305835 -82.86544291 126.09272603 -78.5 125.625 C-73.5941083 125.65230552 -69.74725312 127.66532321 -65.41796875 129.80859375 C-60.99475931 131.98804266 -56.8861794 132.68711898 -52 132 C-49.00068501 130.2395325 -47.46754445 128.77924074 -45.6875 125.8125 C-44.0694201 119.19308222 -44.41585242 113.7411586 -47.8125 107.7734375 C-49.6205916 105.07319544 -51.51107649 103.10175763 -54 101 C-54.556875 100.52949219 -55.11375 100.05898437 -55.6875 99.57421875 C-65.44350472 92.20005112 -81.66258986 86.61331588 -94 88 C-102.02886595 90.22940368 -107.38292873 96.85630383 -111.6875 103.671875 C-114.20692302 108.14085155 -114.75140321 112.92802833 -114 118 C-111.99970681 120.81522745 -110.6430773 121.7856409 -107.375 122.875 C-105 124 -105 124 -103.84765625 126.53515625 C-102.66641748 131.36353777 -102.93881437 135.87642141 -103.16601562 140.81054688 C-103.28507242 145.42091861 -102.99057994 148.24454823 -100 152 C-87.7411937 163.64424873 -62.18824441 165.8046488 -46.10498047 170.1072998 C-41.76804237 171.26822945 -37.43222881 172.43335062 -33.09634495 173.59821033 C-29.72724023 174.50331481 -26.35795323 175.4077159 -22.98802185 176.30973816 C-13.00518183 178.98526251 -13.00518183 178.98526251 -8.83398438 180.21484375 C-1.90818143 182.1336396 6.53944055 182.10249532 13.1640625 179.09765625 C23.3958452 172.98035638 27.72305958 164.3218296 30.57226562 153.03320312 C30.81654297 152.01162109 31.06082031 150.99003906 31.3125 149.9375 C31.70791992 148.35291992 31.70791992 148.35291992 32.11132812 146.73632812 C32.75245515 144.16016317 33.38170597 141.5817218 34 139 C30.59832824 136.8154613 27.45895733 135.35469822 23.5859375 134.2109375 C22.57789063 133.90929687 21.56984375 133.60765625 20.53125 133.296875 C19.4896875 132.99265625 18.448125 132.6884375 17.375 132.375 C15.29944071 131.75794183 13.2239182 131.14075996 11.1484375 130.5234375 C10.23239746 130.25450684 9.31635742 129.98557617 8.37255859 129.70849609 C6.57190655 129.17078337 4.7827884 128.5942628 3 128 C1.875 125.5625 1.875 125.5625 1 123 C0.67 122.34 0.34 121.68 0 121 C0.0419268 119.16360617 0.08893504 117.3271147 0.16796875 115.49194336 C0.66162511 102.00013861 -3.93593738 91.40296788 -10.23242188 79.67944336 C-13.94587467 72.64586582 -15.39010772 65.98065534 -15.375 58 C-15.37628906 57.27522461 -15.37757813 56.55044922 -15.37890625 55.80371094 C-15.24994114 49.03011171 -13.76775488 42.86273428 -11.875 36.390625 C-11.0971126 33.37631134 -10.68242492 31.08103547 -11 28 C-13.21666155 25.4286726 -14.85833376 25.02777769 -18.1875 24.375 C-28.02628481 25.98791554 -35.85930942 36.26234887 -41.41796875 43.96484375 Z M-148.875 40.75 C-150.58303236 44.16606473 -149.956061 46.36696819 -149 50 C-142.7458445 58.87054718 -132.03287757 65.20532997 -122 69 C-117.37206225 69.52559175 -115.6107593 68.11854147 -111.95703125 65.30859375 C-102.1697288 58.76418991 -89.62718531 59.47516349 -78.5 61 C-77.77296875 61.09539062 -77.0459375 61.19078125 -76.296875 61.2890625 C-74.53064133 61.52146167 -72.76522594 61.76006638 -71 62 C-75.19187471 57.23260151 -79.88741545 54.5728972 -85.5 51.6875 C-86.41547607 51.21256104 -87.33095215 50.73762207 -88.27416992 50.24829102 C-102.31911782 43.12699334 -118.16559344 35.61084016 -134.1875 35.6875 C-134.87263672 35.67138672 -135.55777344 35.65527344 -136.26367188 35.63867188 C-141.77641588 35.63336606 -144.90510809 37.04476755 -148.875 40.75 Z " fill="#DEDDDB" transform="translate(232,104)"/>
<path d="M0 0 C3.83669597 2.02693372 6.99766408 4.10071426 9 8 C10.8817179 16.37832767 8.61644136 22.03394364 5.375 29.8125 C4.93542969 30.91142578 4.49585938 32.01035156 4.04296875 33.14257812 C3.15788598 35.34490284 2.25917844 37.54180274 1.34667969 39.73291016 C0.44165762 41.92852389 -0.43236467 44.13714884 -1.27636719 46.35693359 C-1.68790039 47.4186377 -2.09943359 48.4803418 -2.5234375 49.57421875 C-2.88099121 50.52256592 -3.23854492 51.47091309 -3.60693359 52.44799805 C-5.59316784 56.08664274 -8.32189187 58.16094593 -12 60 C-18.51095871 60.80889711 -22.7287841 59.90069977 -28 56 C-31.45832573 52.20699759 -31.28062719 48.60903327 -31.22094727 43.72412109 C-30.86501688 39.33575512 -29.53899142 35.476793 -28 31.375 C-27.53231201 30.09109375 -27.53231201 30.09109375 -27.05517578 28.78125 C-24.91730461 23.06612786 -22.54353751 17.48718026 -19.875 12 C-19.56304687 11.34821777 -19.25109375 10.69643555 -18.9296875 10.02490234 C-14.84614762 2.02158954 -8.94732252 -1.23703512 0 0 Z " fill="#DEDDDB" transform="translate(207,31)"/>
<path d="M0 0 C7.68333163 2.67192783 14.35401 8.27468081 20.875 13 C21.69605225 13.59312988 22.51710449 14.18625977 23.36303711 14.79736328 C28.41865588 18.54822256 33.12651811 22.25303622 36 28 C36.57425085 32.70697417 36.45554552 36.12144792 34.25 40.375 C30.21112506 45.08702076 27.57611869 46.33045376 21.51171875 47.1796875 C14.93679228 46.70931951 10.17985567 42.86758298 5.3125 38.8125 C0.82313918 35.16168485 -3.68640029 31.80579586 -8.5625 28.6875 C-14.18926414 24.99634273 -18.05265079 22.25651291 -20 15.5625 C-20 11.23694687 -19.12684766 8.75743086 -17 5 C-11.54130962 -0.05927401 -7.30307973 -0.98388713 0 0 Z " fill="#DEDDDC" transform="translate(89,56)"/>
<path d="M0 0 C6.28543603 3.27075468 7.77464988 7.76190173 9.921875 14.22265625 C11.13493019 18.34063276 12.17572334 22.48495939 13.171875 26.66015625 C13.44 27.71525391 13.708125 28.77035156 13.984375 29.85742188 C15.88266973 37.72662834 17.82081443 46.13263286 14.296875 53.72265625 C10.46641579 57.75471858 6.99325832 59.36663998 1.484375 59.72265625 C-2.5780671 59.54483892 -5.37023986 58.65181509 -8.47338867 55.98999023 C-14.19388316 49.68987467 -15.51158511 39.18166274 -17.328125 31.16015625 C-17.59625 30.04060547 -17.864375 28.92105469 -18.140625 27.76757812 C-21.64204823 12.5381735 -21.64204823 12.5381735 -18.515625 5.91015625 C-13.42062873 0.29259626 -7.64650014 -2.86025099 0 0 Z " fill="#DEDDDB" transform="translate(147.078125,25.77734375)"/>
<path d="M0 0 C1.16144531 0.00902344 2.32289062 0.01804687 3.51953125 0.02734375 C4.39996094 0.03894531 5.28039062 0.05054687 6.1875 0.0625 C5.8575 0.7225 5.5275 1.3825 5.1875 2.0625 C3.375 2.44140625 3.375 2.44140625 1.1875 2.625 C-1.60182058 2.68915408 -1.60182058 2.68915408 -3.8125 4.0625 C-6.39272142 4.34471172 -8.97280185 4.51070197 -11.5625 4.68359375 C-12.67625 4.87115234 -12.67625 4.87115234 -13.8125 5.0625 C-14.1425 5.7225 -14.4725 6.3825 -14.8125 7.0625 C-16.5625 7.625 -16.5625 7.625 -18.8125 8.0625 C-19.72 8.248125 -20.6275 8.43375 -21.5625 8.625 C-22.305 8.769375 -23.0475 8.91375 -23.8125 9.0625 C-23.8125 9.7225 -23.8125 10.3825 -23.8125 11.0625 C-24.8025 11.0625 -25.7925 11.0625 -26.8125 11.0625 C-26.8125 11.7225 -26.8125 12.3825 -26.8125 13.0625 C-27.4725 13.0625 -28.1325 13.0625 -28.8125 13.0625 C-28.8125 14.0525 -28.8125 15.0425 -28.8125 16.0625 C-29.4725 16.0625 -30.1325 16.0625 -30.8125 16.0625 C-30.8125 16.7225 -30.8125 17.3825 -30.8125 18.0625 C-31.4725 18.0625 -32.1325 18.0625 -32.8125 18.0625 C-32.8125 20.0425 -32.8125 22.0225 -32.8125 24.0625 C-33.8025 24.3925 -34.7925 24.7225 -35.8125 25.0625 C-38.16771121 34.86321763 -37.83578548 45.81875628 -33.8125 55.0625 C-32.8125 58.0625 -32.8125 58.0625 -31.8125 61.0625 C-35.64922222 59.6063453 -36.77794196 57.84891047 -38.5 54.1875 C-39.12455078 52.89199219 -39.12455078 52.89199219 -39.76171875 51.5703125 C-43.10782872 43.58442923 -42.93224313 34.40450656 -40.1875 26.25 C-36.30087389 16.90584664 -29.22975923 8.11708018 -19.96484375 3.70703125 C-13.21973399 1.19236718 -7.21550331 -0.07288387 0 0 Z " fill="#C6C1C2" transform="translate(94.8125,110.9375)"/>
<path d="M0 0 C0.99 0 1.98 0 3 0 C6.1689382 6.33787641 8.37910362 12.80400387 6.08203125 19.79296875 C2.53676267 27.35257221 2.53676267 27.35257221 -2 29 C-7.12723846 30.07205895 -11.87131878 30.18354182 -17 29 C-17 28.34 -17 27.68 -17 27 C-17.5775 26.87625 -18.155 26.7525 -18.75 26.625 C-21 26 -21 26 -22.84375 25 C-25.22628121 23.89505799 -27.14303252 23.60502654 -29.75 23.375 C-30.54921875 23.30023438 -31.3484375 23.22546875 -32.171875 23.1484375 C-32.77515625 23.09945312 -33.3784375 23.05046875 -34 23 C-34 23.66 -34 24.32 -34 25 C-34.639375 25.268125 -35.27875 25.53625 -35.9375 25.8125 C-38.33131686 26.88667752 -38.33131686 26.88667752 -39 30 C-39.39655596 35.25436649 -39.05535135 38.64843899 -36 43 C-33.72463565 44.71779759 -31.40318746 46.23303279 -28.9609375 47.703125 C-27 49 -27 49 -26 51 C-32.57395928 49.2031178 -38.42155022 47.25620819 -42.140625 41.1171875 C-43.62262556 37.46607703 -43.45101556 33.87179508 -43 30 C-41.35119358 26.29018555 -39.04854115 23.66747351 -36 21 C-28.40479489 18.46826496 -23.3318226 20.38579728 -16.41796875 23.80859375 C-12.03886542 25.96631026 -7.84303733 26.85909629 -3 26 C0.21954645 23.46546343 1.70432435 21.88702695 3 18 C3.68388177 11.4505169 2.4100384 6.0681324 0 0 Z " fill="#C8C4C4" transform="translate(183,209)"/>
<path d="M0 0 C1.32 0.33 2.64 0.66 4 1 C5 8 6 15 7 22 C7.99 22.33 8.98 22.66 10 23 C10.61875 24.299375 10.61875 24.299375 11.25 25.625 C16.29652824 35.35759018 26.00954272 40.44736798 36.17041016 43.69335938 C43.97473148 46.0663167 43.97473148 46.0663167 52 47 C52.33 47.66 52.66 48.32 53 49 C55.64229695 49.61987221 55.64229695 49.61987221 58.75 50 C62.83634722 50.5636341 66.18977734 51.45850698 70 53 C72.2763878 53.33781134 74.52165929 53.49716875 76.81640625 53.65625 C81.01837027 54.31773986 84.41712072 56.81046266 88 59 C84.58454451 60.13848516 83.51592421 59.83460883 80.1081543 58.93945312 C79.11248947 58.68168091 78.11682465 58.42390869 77.09098816 58.1583252 C76.01295425 57.86889038 74.93492035 57.57945557 73.82421875 57.28125 C72.70747269 56.98569214 71.59072662 56.69013428 70.44013977 56.38562012 C68.06755805 55.75432829 65.6961816 55.11849218 63.32592773 54.47851562 C59.74439669 53.51530175 56.15693826 52.57718494 52.56835938 51.640625 C34.30010544 46.78909621 16.46743633 42.03741586 6.0625 24.9375 C1.59481976 16.67280745 0.57839727 9.26957724 0 0 Z " fill="#CCC4C5" transform="translate(99,243)"/>
<path d="M0 0 C3.46402755 1.67645406 6.51355328 3.785028 9.61328125 6.04296875 C10.22913086 6.48850098 10.84498047 6.9340332 11.47949219 7.39306641 C26.13635359 18.10622207 26.13635359 18.10622207 27.13671875 24.50390625 C27.25062889 30.9967843 25.58647824 34.36342384 21.11328125 39.16796875 C17.51649403 41.01496759 13.83000603 41.64371811 9.80078125 41.35546875 C4.38497591 39.48124908 0.48492506 36.80933366 -3.88671875 33.16796875 C-9.29373838 28.77868106 -14.78988324 24.84248565 -20.67578125 21.109375 C-23.1691485 19.37636897 -25.20102343 17.63979063 -27.19921875 15.35546875 C-27.19921875 14.69546875 -27.19921875 14.03546875 -27.19921875 13.35546875 C-26.53921875 13.35546875 -25.87921875 13.35546875 -25.19921875 13.35546875 C-25.19921875 14.01546875 -25.19921875 14.67546875 -25.19921875 15.35546875 C-24.53921875 15.35546875 -23.87921875 15.35546875 -23.19921875 15.35546875 C-23.19921875 16.01546875 -23.19921875 16.67546875 -23.19921875 17.35546875 C-22.63847656 17.4534375 -22.07773438 17.55140625 -21.5 17.65234375 C-18.67741118 18.51493456 -16.77516172 19.87525809 -14.38671875 21.60546875 C-13.07574219 22.54519531 -13.07574219 22.54519531 -11.73828125 23.50390625 C-10.19036801 24.63269221 -8.64327699 25.76260825 -7.09765625 26.89453125 C-4.46881395 28.80743352 -2.30641256 30.31973748 0.80078125 31.35546875 C2.50759072 32.98100158 4.1773832 34.6466287 5.80078125 36.35546875 C7.52022426 38.07491176 9.70493348 37.64892859 12.05078125 37.73046875 C16.34804899 37.71372615 17.41834127 37.65377194 20.92578125 34.91796875 C21.85390625 33.64953125 21.85390625 33.64953125 22.80078125 32.35546875 C23.13078125 32.02546875 23.46078125 31.69546875 23.80078125 31.35546875 C24.08440233 26.53391045 23.55495537 22.85053994 21.80078125 18.35546875 C20.81078125 18.35546875 19.82078125 18.35546875 18.80078125 18.35546875 C18.14078125 16.70546875 17.48078125 15.05546875 16.80078125 13.35546875 C15.81078125 13.35546875 14.82078125 13.35546875 13.80078125 13.35546875 C13.80078125 12.69546875 13.80078125 12.03546875 13.80078125 11.35546875 C11.32578125 10.86046875 11.32578125 10.86046875 8.80078125 10.35546875 C8.80078125 9.69546875 8.80078125 9.03546875 8.80078125 8.35546875 C8.14078125 8.35546875 7.48078125 8.35546875 6.80078125 8.35546875 C6.80078125 7.69546875 6.80078125 7.03546875 6.80078125 6.35546875 C5.15078125 6.35546875 3.50078125 6.35546875 1.80078125 6.35546875 C1.47078125 5.36546875 1.14078125 4.37546875 0.80078125 3.35546875 C0.14078125 3.35546875 -0.51921875 3.35546875 -1.19921875 3.35546875 C-1.19921875 2.69546875 -1.19921875 2.03546875 -1.19921875 1.35546875 C-2.18921875 1.02546875 -3.17921875 0.69546875 -4.19921875 0.35546875 C-2.19921875 -0.64453125 -2.19921875 -0.64453125 0 0 Z " fill="#C5C1C1" transform="translate(98.19921875,61.64453125)"/>
<path d="M0 0 C0.66 0 1.32 0 2 0 C4.42340657 7.27021971 2.84284462 14.1599841 1 21.375 C-2.44258986 35.48256772 -0.83956451 43.36640533 5.671875 56.23046875 C9.63085317 64.12777231 12.54512816 72.49105241 13.8125 81.25 C14.55030927 85.00432026 14.55030927 85.00432026 16.859375 86.13671875 C19.03125977 86.97144444 19.03125977 86.97144444 21.22265625 87.46484375 C22.10244141 87.72974609 22.10244141 87.72974609 23 88 C23.495 88.99 23.495 88.99 24 90 C18.73946963 90.31563182 15.55426184 89.66590937 11 87 C11.103125 86.113125 11.20625 85.22625 11.3125 84.3125 C11.33749049 78.17733566 8.3343119 72.55187696 6 67 C5.70480469 66.2678125 5.40960938 65.535625 5.10546875 64.78125 C4.07950502 62.2794347 2.97805799 59.96478662 1.546875 57.66796875 C-0.03930224 54.93221356 -1.09091466 52.29669116 -2.125 49.3125 C-3.40631992 45.58991116 -3.40631992 45.58991116 -5 42 C-5.99806275 35.48407603 -4.50209948 29.93543228 -2.5 23.8125 C0.15217954 15.6654129 0.5594093 8.54031533 0 0 Z " fill="#BFB9B9" transform="translate(247,125)"/>
<path d="M0 0 C6.85527016 1.28927104 6.85527016 1.28927104 13.8125 1.5 C13.8125 2.16 13.8125 2.82 13.8125 3.5 C14.69292969 3.82613281 15.57335937 4.15226563 16.48046875 4.48828125 C17.64191406 4.92527344 18.80335938 5.36226562 20 5.8125 C21.14855469 6.24175781 22.29710937 6.67101562 23.48046875 7.11328125 C26.50329298 8.37131478 29.17114653 9.56499717 31.8125 11.5 C31.8125 12.49 31.8125 13.48 31.8125 14.5 C29.8125 13.83333333 27.8125 13.16666667 25.8125 12.5 C25.8125 11.84 25.8125 11.18 25.8125 10.5 C25.20921875 10.45101562 24.6059375 10.40203125 23.984375 10.3515625 C23.18515625 10.27679688 22.3859375 10.20203125 21.5625 10.125 C20.77359375 10.05539063 19.9846875 9.98578125 19.171875 9.9140625 C16.726623 9.48492887 14.96413097 8.71399362 12.8125 7.5 C12.8125 6.84 12.8125 6.18 12.8125 5.5 C10.5025 5.83 8.1925 6.16 5.8125 6.5 C5.8125 5.84 5.8125 5.18 5.8125 4.5 C1.51644268 3.67777446 -2.52716603 3.38229205 -6.8984375 3.40234375 C-8.14238281 3.40556641 -9.38632813 3.40878906 -10.66796875 3.41210938 C-11.95316406 3.42048828 -13.23835938 3.42886719 -14.5625 3.4375 C-15.87089844 3.44201172 -17.17929688 3.44652344 -18.52734375 3.45117188 C-21.74744281 3.46292406 -24.9674477 3.47935457 -28.1875 3.5 C-28.1875 4.16 -28.1875 4.82 -28.1875 5.5 C-30.1875 7.5 -30.1875 7.5 -33.3125 7.625 C-34.735625 7.563125 -34.735625 7.563125 -36.1875 7.5 C-35.1875 4.5 -35.1875 4.5 -33.69140625 3.40234375 C-22.635023 -2.09247851 -11.91675331 -2.21753498 0 0 Z " fill="#CCC3C5" transform="translate(154.1875,164.5)"/>
<path d="M0 0 C10.12485361 9.02432604 12.98357371 23.81508933 13.78515625 36.85546875 C13.81480469 37.74878906 13.84445312 38.64210937 13.875 39.5625 C13.93494141 41.13451172 13.93494141 41.13451172 13.99609375 42.73828125 C14.13939745 49.91189579 13.44567595 56.56457767 11.875 63.5625 C11.545 63.5625 11.215 63.5625 10.875 63.5625 C10.86041748 62.70197021 10.84583496 61.84144043 10.83081055 60.95483398 C10.76882173 57.68344536 10.69451851 54.41277276 10.61254883 51.1418457 C10.57981288 49.7409068 10.55163176 48.33985216 10.52856445 46.9387207 C10.8970027 30.09588136 10.8970027 30.09588136 4.875 15.5625 C4.7925 14.86125 4.71 14.16 4.625 13.4375 C3.49462698 9.10440344 0.811182 5.89588434 -2.125 2.5625 C-4.58509963 1.33245019 -6.25672806 1.42935973 -9 1.4375 C-9.86367188 1.43492187 -10.72734375 1.43234375 -11.6171875 1.4296875 C-13.93165971 1.55226079 -15.90789116 1.91283555 -18.125 2.5625 C-17.795 1.5725 -17.465 0.5825 -17.125 -0.4375 C-11.13063931 -3.36157838 -5.88624012 -2.70767045 0 0 Z " fill="#C7C1C1" transform="translate(292.125,209.4375)"/>
<path d="M0 0 C0 0.33 0 0.66 0 1 C-2.64 1.66 -5.28 2.32 -8 3 C-8 3.66 -8 4.32 -8 5 C-8.66 5 -9.32 5 -10 5 C-11.83702079 13.46871702 -9.99737369 20.9232066 -7.82226562 29.09667969 C-7.24854867 31.25546107 -6.70053437 33.41956824 -6.15625 35.5859375 C-3.88487068 44.59301987 -3.88487068 44.59301987 0 53 C2.07690578 53.96044102 2.07690578 53.96044102 4 54 C4 54.66 4 55.32 4 56 C7.465 55.505 7.465 55.505 11 55 C11 54.67 11 54.34 11 54 C12.65 54 14.3 54 16 54 C15.67 54.99 15.34 55.98 15 57 C10.34986168 58.55004611 5.66155331 59.01688976 0.99609375 57.234375 C-6.15636006 52.84712472 -7.75818858 44.31438934 -9.703125 36.65234375 C-10.22716174 34.41601694 -10.74269157 32.17768085 -11.25 29.9375 C-11.518125 28.81794922 -11.78625 27.69839844 -12.0625 26.54492188 C-15.59348006 11.18696012 -15.59348006 11.18696012 -12.3125 4.625 C-8.44994551 0.24047868 -5.81916975 -1.82888192 0 0 Z " fill="#C2BBBD" transform="translate(141,27)"/>
<path d="M0 0 C0.33 0.66 0.66 1.32 1 2 C1.66 2 2.32 2 3 2 C2.91145865 3.68839195 2.80327913 5.37575694 2.6875 7.0625 C2.62949219 8.00222656 2.57148438 8.94195312 2.51171875 9.91015625 C2 13 2 13 0.484375 16.19921875 C-1.65988141 20.91503139 -1.4900409 25.6474539 -1.4375 30.75 C-1.43355225 31.72702881 -1.42960449 32.70405762 -1.42553711 33.71069336 C-1.30179995 39.91567191 -0.64704166 45.19463906 2.02734375 50.87890625 C3.10677354 53.23284349 3.57483435 55.45348154 4 58 C4.66 58 5.32 58 6 58 C7.4606285 60.64738916 8 61.89448334 8 65 C4.56675229 63.61692112 3.35709642 62.42474401 1.89453125 59.04296875 C1.55099609 58.25986328 1.20746094 57.47675781 0.85351562 56.66992188 C0.33821289 55.44112305 0.33821289 55.44112305 -0.1875 54.1875 C-0.54263672 53.37990234 -0.89777344 52.57230469 -1.26367188 51.74023438 C-7.09565151 38.22819047 -5.96341629 24.46062296 -1.97265625 10.5859375 C-1.00540737 7.01993561 -0.44677782 3.65887518 0 0 Z " fill="#BCB6B7" transform="translate(221,130)"/>
<path d="M0 0 C1.0209375 0.2165625 1.0209375 0.2165625 2.0625 0.4375 C0.06844567 2.49782199 -1.99835204 4.29223884 -4.25 6.0625 C-9.17659923 10.24644839 -13.85737417 15.90708408 -14.9375 22.4375 C-15.00374507 24.18636981 -15.02302595 25.93752748 -15 27.6875 C-14.98646484 29.02554688 -14.98646484 29.02554688 -14.97265625 30.390625 C-14.96105469 31.06609375 -14.94945313 31.7415625 -14.9375 32.4375 C-13.8546875 32.7778125 -13.8546875 32.7778125 -12.75 33.125 C-9.36064891 34.70669718 -7.3950312 36.63864502 -4.9375 39.4375 C-2.70544608 46.13366177 -4.0641942 53.56021685 -4.9375 60.4375 C-5.5975 60.4375 -6.2575 60.4375 -6.9375 60.4375 C-7.2675 54.1675 -7.5975 47.8975 -7.9375 41.4375 C-8.5975 41.1075 -9.2575 40.7775 -9.9375 40.4375 C-9.9375 39.4475 -9.9375 38.4575 -9.9375 37.4375 C-10.515 37.334375 -11.0925 37.23125 -11.6875 37.125 C-15.27201804 36.0297306 -17.27715553 34.45803237 -19.3125 31.3125 C-20.23539225 27.06719566 -19.32782344 23.50916151 -17.9375 19.4375 C-16.375 17.0625 -16.375 17.0625 -14.9375 15.4375 C-14.6075 14.4475 -14.2775 13.4575 -13.9375 12.4375 C-13.2775 12.4375 -12.6175 12.4375 -11.9375 12.4375 C-11.6590625 11.4165625 -11.6590625 11.4165625 -11.375 10.375 C-9.02481582 5.57244973 -5.49599227 0.81855204 0 0 Z " fill="#C3BBBB" transform="translate(133.9375,191.5625)"/>
<path d="M0 0 C4.59499783 0.54058798 7.50942954 1.95503428 11 5 C14.65831517 11.98583886 16.43204537 19.81785851 18.25 27.4375 C18.518125 28.49259766 18.78625 29.54769531 19.0625 30.63476562 C23.12697164 47.48365956 23.12697164 47.48365956 19.60253906 53.31030273 C18.80928223 54.14670288 18.80928223 54.14670288 18 55 C17.34 55 16.68 55 16 55 C16.10699219 54.319375 16.21398437 53.63875 16.32421875 52.9375 C17.74539511 41.44583737 15.25753239 31.00410332 12 20 C10.0240481 13.25851703 10.0240481 13.25851703 9.75 10.3125 C8.59443997 6.74952323 6.17063506 5.77555563 3 4 C2.01 3.67 1.02 3.34 0 3 C0 2.01 0 1.02 0 0 Z " fill="#C7C0C1" transform="translate(142,25)"/>
<path d="M0 0 C0.99 0 1.98 0 3 0 C2.42618341 5.16434931 1.24045496 9.76427374 -0.625 14.625 C-0.89006348 15.31867676 -1.15512695 16.01235352 -1.42822266 16.72705078 C-6.63925507 29.9961928 -13.4839207 43.39218709 -26 51 C-28.75078884 51.91692961 -30.35948913 52.10886083 -33.1875 52.0625 C-34.445625 52.041875 -35.70375 52.02125 -37 52 C-37 51.34 -37 50.68 -37 50 C-35.66195313 49.79697266 -35.66195313 49.79697266 -34.296875 49.58984375 C-27.70432752 48.63851032 -27.70432752 48.63851032 -22.24609375 45.2421875 C-21.02921143 43.14361498 -21.02921143 43.14361498 -20 40 C-19.34 40 -18.68 40 -18 40 C-16.44940933 37.9680865 -15.05627707 35.96339527 -13.6875 33.8125 C-13.28450684 33.18190674 -12.88151367 32.55131348 -12.46630859 31.90161133 C-8.75019368 25.90539128 -6.22400161 19.68951664 -4 13 C-3.69320312 12.11828125 -3.38640625 11.2365625 -3.0703125 10.328125 C-1.8974362 6.91002836 -0.84537459 3.51456657 0 0 Z " fill="#CBC5C6" transform="translate(296,300)"/>
<path d="M0 0 C6.625 -0.125 6.625 -0.125 10 1 C9.91239411 3.06326977 9.80420727 5.1256716 9.6875 7.1875 C9.62949219 8.33605469 9.57148438 9.48460937 9.51171875 10.66796875 C8.97198212 14.18243707 7.91195363 16.0565977 6 19 C5.855625 20.11375 5.71125 21.2275 5.5625 22.375 C4.8713803 26.82888253 3.34279713 29.16633197 1 33 C0.67 33.886875 0.34 34.77375 0 35.6875 C-1.21168385 38.48951891 -2.68245137 40.0335951 -5 42 C-6.485 42.495 -6.485 42.495 -8 43 C-8.33 43.66 -8.66 44.32 -9 45 C-10.32 45 -11.64 45 -13 45 C-11.87561424 41.96415844 -10.79898737 40.84365684 -8.1875 38.8125 C-0.87467188 32.93126032 1.22284823 23.67654499 3.3125 14.9375 C3.57611328 13.88111328 3.83972656 12.82472656 4.11132812 11.73632812 C4.75245515 9.16016317 5.38170597 6.5817218 6 4 C4.02 3.01 2.04 2.02 0 1 C0 0.67 0 0.34 0 0 Z " fill="#B8B4B4" transform="translate(259,239)"/>
<path d="M0 0 C1.97226563 0.00966797 1.97226563 0.00966797 3.984375 0.01953125 C7.25 0.1875 7.25 0.1875 9.25 1.1875 C9.25 1.8475 9.25 2.5075 9.25 3.1875 C8.17621094 3.23648438 7.10242188 3.28546875 5.99609375 3.3359375 C4.55987358 3.41103398 3.12367681 3.48657876 1.6875 3.5625 C0.98302734 3.5934375 0.27855469 3.624375 -0.44726562 3.65625 C-7.03938693 4.02079127 -12.83238592 5.40034184 -18.625 8.6875 C-19.38554687 9.1103125 -20.14609375 9.533125 -20.9296875 9.96875 C-22.89639686 11.06827674 -22.89639686 11.06827674 -23.75 13.1875 C-24.4925 13.620625 -25.235 14.05375 -26 14.5 C-30.1564417 17.05054377 -33.05563971 20.14595956 -35.75 24.1875 C-36.41 24.1875 -37.07 24.1875 -37.75 24.1875 C-37.75 25.1775 -37.75 26.1675 -37.75 27.1875 C-38.41 27.1875 -39.07 27.1875 -39.75 27.1875 C-40.41 28.5075 -41.07 29.8275 -41.75 31.1875 C-42.41 30.8575 -43.07 30.5275 -43.75 30.1875 C-41.79324529 24.61273105 -38.50747164 21.40878037 -34.375 17.3125 C-33.65908691 16.60013184 -32.94317383 15.88776367 -32.20556641 15.15380859 C-22.96949757 6.20192649 -13.24620319 -0.14398047 0 0 Z " fill="#C5BFC0" transform="translate(213.75,99.8125)"/>
<path d="M0 0 C1.20635101 0.32370323 1.20635101 0.32370323 2.43707275 0.65394592 C4.12511552 1.10827464 5.81258891 1.56472372 7.49951172 2.02319336 C10.08243219 2.7238246 12.66799369 3.41402064 15.25390625 4.10351562 C16.89860683 4.54755036 18.54314406 4.99219067 20.1875 5.4375 C21.3453299 5.74541725 21.3453299 5.74541725 22.52655029 6.05955505 C25.88332958 6.97983241 28.40696957 7.8377193 31.328125 9.78515625 C30.668125 10.44515625 30.008125 11.10515625 29.328125 11.78515625 C28.338125 11.78515625 27.348125 11.78515625 26.328125 11.78515625 C26.328125 11.12515625 26.328125 10.46515625 26.328125 9.78515625 C25.35875 9.84703125 24.389375 9.90890625 23.390625 9.97265625 C19.47933107 9.98052606 16.3313514 8.91068253 12.68359375 7.5859375 C8.97237491 6.32424619 5.16645312 5.5564515 1.328125 4.78515625 C1.328125 4.12515625 1.328125 3.46515625 1.328125 2.78515625 C-0.981875 2.78515625 -3.291875 2.78515625 -5.671875 2.78515625 C-5.671875 2.12515625 -5.671875 1.46515625 -5.671875 0.78515625 C-6.84556641 0.71167969 -6.84556641 0.71167969 -8.04296875 0.63671875 C-9.56083984 0.52457031 -9.56083984 0.52457031 -11.109375 0.41015625 C-12.62337891 0.30574219 -12.62337891 0.30574219 -14.16796875 0.19921875 C-14.99425781 0.06257813 -15.82054687 -0.0740625 -16.671875 -0.21484375 C-17.001875 -0.87484375 -17.331875 -1.53484375 -17.671875 -2.21484375 C-12.72018471 -4.69068889 -5.17924335 -1.40571365 0 0 Z " fill="#CDC9C9" transform="translate(171.671875,269.21484375)"/>
<path d="M0 0 C0.66 0 1.32 0 2 0 C1.88637738 1.4800841 1.75877092 2.95910074 1.625 4.4375 C1.55539063 5.26121094 1.48578125 6.08492187 1.4140625 6.93359375 C1.27742187 7.61550781 1.14078125 8.29742187 1 9 C0.01 9.495 0.01 9.495 -1 10 C-1.96169216 12.68399539 -2.82270888 15.33144506 -3.625 18.0625 C-3.85445312 18.82111328 -4.08390625 19.57972656 -4.3203125 20.36132812 C-4.88710193 22.23881812 -5.44444077 24.11915633 -6 26 C-6.66 26 -7.32 26 -8 26 C-7.93958131 28.0632984 -7.85068362 30.12577414 -7.75 32.1875 C-7.70359375 33.33605469 -7.6571875 34.48460937 -7.609375 35.66796875 C-6.91174 39.48260114 -5.62748409 41.20961189 -3 44 C-3.99 44.495 -3.99 44.495 -5 45 C-11.14571086 39.01187147 -11.14571086 39.01187147 -11.265625 33.5078125 C-11.204401 27.82826628 -9.74644224 23.14723727 -7.75 17.875 C-7.44964844 17.03324219 -7.14929688 16.19148438 -6.83984375 15.32421875 C-4.90340473 10.00931166 -2.61684042 5.01368098 0 0 Z " fill="#C3BCBD" transform="translate(187,44)"/>
<path d="M0 0 C1.19625 0.391875 2.3925 0.78375 3.625 1.1875 C4.40875 1.455625 5.1925 1.72375 6 2 C6 2.66 6 3.32 6 4 C6.99 4 7.98 4 9 4 C9 4.66 9 5.32 9 6 C9.556875 6.12375 10.11375 6.2475 10.6875 6.375 C13.28715346 7.07760904 15.598062 7.76657238 18 9 C18.625 11.0625 18.625 11.0625 19 13 C19.99 13.33 20.98 13.66 22 14 C21.01 14.33 20.02 14.66 19 15 C17.08203125 13.77734375 17.08203125 13.77734375 14.8125 11.9375 C10.36186469 8.66977951 6.01588147 6.57514403 0.875 4.6875 C0.21862549 4.44572021 -0.43774902 4.20394043 -1.11401367 3.95483398 C-7.2559555 1.77874852 -13.49008465 -0.01469544 -20 -0.625 C-21.1446875 -0.73714844 -21.1446875 -0.73714844 -22.3125 -0.8515625 C-22.869375 -0.90054688 -23.42625 -0.94953125 -24 -1 C-24 -1.33 -24 -1.66 -24 -2 C-15.05018056 -3.78996389 -8.50311936 -2.90523245 0 0 Z " fill="#CCC4C5" transform="translate(162,193)"/>
<path d="M0 0 C2.64 0 5.28 0 8 0 C8 0.66 8 1.32 8 2 C11.96 2.33 15.92 2.66 20 3 C20 3.66 20 4.32 20 5 C20.66644531 5.10957031 21.33289063 5.21914063 22.01953125 5.33203125 C27.09583855 6.2052981 32.12575687 7.19260328 37.125 8.4375 C38.03507812 8.66308594 38.94515625 8.88867188 39.8828125 9.12109375 C40.58148438 9.41113281 41.28015625 9.70117188 42 10 C42.495 11.485 42.495 11.485 43 13 C37.29864742 12.4135912 32.05301951 11.33386756 26.5625 9.71484375 C25.41418701 9.3840255 25.41418701 9.3840255 24.24267578 9.04652405 C21.82677973 8.34914037 19.41339697 7.64347771 17 6.9375 C15.35042025 6.45973427 13.70068196 5.98251553 12.05078125 5.50585938 C8.03199505 4.34355073 4.01543915 3.17381706 0 2 C0 1.34 0 0.68 0 0 Z " fill="#D1CACB" transform="translate(195,304)"/>
<path d="M0 0 C1.07411133 0.04060547 1.07411133 0.04060547 2.16992188 0.08203125 C7.23172953 0.36759274 10.86188675 1.57880488 15.4375 3.75 C16.73941187 4.17937834 18.04995011 4.58595615 19.375 4.9375 C20.385625 5.205625 21.39625 5.47375 22.4375 5.75 C22.4375 6.41 22.4375 7.07 22.4375 7.75 C17.86075841 7.31823193 13.8163325 6.59190619 9.4375 5.1875 C4.56313061 3.79286977 0.03375886 3.45176156 -5 3.4375 C-5.68642578 3.43226318 -6.37285156 3.42702637 -7.08007812 3.42163086 C-10.7959401 3.47344384 -13.34843371 3.91234479 -16.5625 5.75 C-17.5525 5.75 -18.5425 5.75 -19.5625 5.75 C-17.6875 1.875 -17.6875 1.875 -16.5625 0.75 C-10.94756521 -0.17027724 -5.66843217 -0.33856699 0 0 Z " fill="#CCC5C6" transform="translate(102.5625,137.25)"/>
<path d="M0 0 C1.32 0.33 2.64 0.66 4 1 C4.33 2.32 4.66 3.64 5 5 C5.99 5 6.98 5 8 5 C9.3743291 6.29103643 10.70896357 7.6256709 12 9 C12.66 9.33 13.32 9.66 14 10 C14 10.66 14 11.32 14 12 C16.475 12.99 16.475 12.99 19 14 C19 14.66 19 15.32 19 16 C20.08861328 16.16822266 20.08861328 16.16822266 21.19921875 16.33984375 C24.12563993 17.02961387 26.22287809 18.05510814 28.8125 19.5625 C29.60269531 20.01753906 30.39289063 20.47257812 31.20703125 20.94140625 C31.79871094 21.29074219 32.39039063 21.64007813 33 22 C33 23.65 33 25.3 33 27 C32.01 27 31.02 27 30 27 C29.773125 26.39671875 29.54625 25.7934375 29.3125 25.171875 C27.61081228 22.35598699 25.94707754 21.6733045 23 20.25 C14.42870802 15.79606948 6.15130217 9.53636358 0 2 C0 1.34 0 0.68 0 0 Z " fill="#C7C1C2" transform="translate(63,173)"/>
<path d="M0 0 C5.9851383 1.01082336 9.98571743 2.44821651 15 6 C17.95796157 7.43505066 20.96678719 8.73279109 24 10 C24 10.66 24 11.32 24 12 C25.98 12 27.96 12 30 12 C30.66 13.32 31.32 14.64 32 16 C32.66 16 33.32 16 34 16 C34 16.66 34 17.32 34 18 C34.66 18.33 35.32 18.66 36 19 C32.14745832 18.39954205 29.19652741 17.24697392 25.76171875 15.41796875 C24.77623047 14.89783203 23.79074219 14.37769531 22.77539062 13.84179688 C21.24688477 13.02291992 21.24688477 13.02291992 19.6875 12.1875 C17.6708825 11.11790569 15.65396099 10.04888435 13.63671875 8.98046875 C12.67942871 8.47177246 11.72213867 7.96307617 10.73583984 7.43896484 C7.18342776 5.57050894 3.59938702 3.77604162 0 2 C0 1.34 0 0.68 0 0 Z " fill="#C5BEC0" transform="translate(127,145)"/>
<path d="M0 0 C12.67900089 -0.94894809 24.5061685 2.91566983 36 8 C35.67 8.99 35.34 9.98 35 11 C34.29875 10.690625 33.5975 10.38125 32.875 10.0625 C29.91063343 8.96697322 27.12301892 8.43577008 24 8 C24 7.34 24 6.68 24 6 C18.555 5.505 18.555 5.505 13 5 C13 4.34 13 3.68 13 3 C9.37 3 5.74 3 2 3 C2 2.34 2 1.68 2 1 C1.34 0.67 0.68 0.34 0 0 Z " fill="#C1BDBE" transform="translate(102,112)"/>
<path d="M0 0 C0.99 0 1.98 0 3 0 C2.52367856 13.64660921 -0.95232495 23.58139468 -10.375 33.5 C-10.91125 33.995 -11.4475 34.49 -12 35 C-12.66 34.67 -13.32 34.34 -14 34 C-13 31 -13 31 -10.4375 28.5 C-7.65094993 26.2239365 -7.65094993 26.2239365 -8 23 C-7.01 22.67 -6.02 22.34 -5 22 C-1.68356023 15.05834849 -0.33771898 7.63244899 0 0 Z " fill="#C2BCBC" transform="translate(213,221)"/>
<path d="M0 0 C-1.134375 0.495 -2.26875 0.99 -3.4375 1.5 C-14.54893961 7.14359586 -21.708805 17.39856494 -28.6640625 27.390625 C-29.10492188 27.92171875 -29.54578125 28.4528125 -30 29 C-30.66 29 -31.32 29 -32 29 C-31.35494404 25.51669784 -30.01782732 22.90567134 -28 20 C-27.34 20 -26.68 20 -26 20 C-26 19.34 -26 18.68 -26 18 C-25.34 18 -24.68 18 -24 18 C-23.67 16.68 -23.34 15.36 -23 14 C-22.34 14 -21.68 14 -21 14 C-20.7525 13.443125 -20.505 12.88625 -20.25 12.3125 C-16.93572281 6.18108719 -12.55110628 2.77555314 -6.375 -0.3125 C-3.72799401 -1.07873858 -2.58359134 -0.75763543 0 0 Z " fill="#CEC9C9" transform="translate(215,128)"/>
<path d="M0 0 C1 2 1 2 0.36669922 4.14794922 C0.01623535 5.02467285 -0.33422852 5.90139648 -0.6953125 6.8046875 C-1.07953369 7.77591553 -1.46375488 8.74714355 -1.85961914 9.74780273 C-2.27719482 10.77977783 -2.69477051 11.81175293 -3.125 12.875 C-3.53935303 13.915354 -3.95370605 14.95570801 -4.38061523 16.02758789 C-7.18460029 23.04659919 -10.02613248 30.05101308 -13 37 C-13.66 37 -14.32 37 -15 37 C-14.7834375 35.9790625 -14.7834375 35.9790625 -14.5625 34.9375 C-14.13859432 32.72377032 -13.82368942 30.48876645 -13.5625 28.25 C-13.376875 27.1775 -13.19125 26.105 -13 25 C-12.34 24.67 -11.68 24.34 -11 24 C-10.10785045 21.42071616 -9.30788938 18.87155523 -8.5625 16.25 C-5.90849006 6.94003454 -5.90849006 6.94003454 -3 3 C-2.34 3 -1.68 3 -1 3 C-0.67 2.01 -0.34 1.02 0 0 Z " fill="#C5BEBE" transform="translate(215,49)"/>
<path d="M0 0 C4.95372079 4.14730113 6.06169079 6.74158424 6.6875 13.25 C6.0275 13.25 5.3675 13.25 4.6875 13.25 C4.49414062 12.68410156 4.30078125 12.11820313 4.1015625 11.53515625 C3.71097656 10.43494141 3.71097656 10.43494141 3.3125 9.3125 C3.05726563 8.58160156 2.80203125 7.85070312 2.5390625 7.09765625 C1.83478587 5.06317884 1.83478587 5.06317884 -0.3125 4.25 C-0.3125 3.59 -0.3125 2.93 -0.3125 2.25 C-1.91570974 2.05448662 -3.52012986 1.86888017 -5.125 1.6875 C-6.01832031 1.58308594 -6.91164062 1.47867188 -7.83203125 1.37109375 C-10.44625572 1.09341291 -10.44625572 1.09341291 -13.3125 2.25 C-13.3125 3.24 -13.3125 4.23 -13.3125 5.25 C-14.116875 5.518125 -14.92125 5.78625 -15.75 6.0625 C-16.595625 6.454375 -17.44125 6.84625 -18.3125 7.25 C-18.6425 8.24 -18.9725 9.23 -19.3125 10.25 C-19.9725 10.25 -20.6325 10.25 -21.3125 10.25 C-20.80864177 5.84124045 -19.4011933 3.42449034 -16.3125 0.25 C-10.94597733 -2.88047156 -5.34887411 -2.82582029 0 0 Z " fill="#CAC5C7" transform="translate(210.3125,32.75)"/>
<path d="M0 0 C5.31194412 0.55522661 9.27864618 2.38390165 13.9375 4.8125 C14.61490234 5.15603516 15.29230469 5.49957031 15.99023438 5.85351562 C20.40362095 8.10887041 24.71330594 10.512935 29 13 C29 13.66 29 14.32 29 15 C26.69 14.67 24.38 14.34 22 14 C22 13.34 22 12.68 22 12 C21.01 12 20.02 12 19 12 C19 11.34 19 10.68 19 10 C18.278125 9.87625 17.55625 9.7525 16.8125 9.625 C14.04278106 9.0095069 11.6029646 8.11555626 9 7 C9 6.34 9 5.68 9 5 C8.2575 5.04125 7.515 5.0825 6.75 5.125 C3.91241048 4.99601866 2.41226062 4.42948778 0 3 C0 2.01 0 1.02 0 0 Z " fill="#CBC7C8" transform="translate(139,122)"/>
<path d="M0 0 C1.216875 0.33 2.43375 0.66 3.6875 1 C11.71470984 2.79088068 19.95060914 2.50850653 28 1 C27.67 1.99 27.34 2.98 27 4 C26.34 4 25.68 4 25 4 C25 4.66 25 5.32 25 6 C18.73 6 12.46 6 6 6 C6 5.67 6 5.34 6 5 C3.69 4.34 1.38 3.68 -1 3 C-0.67 2.01 -0.34 1.02 0 0 Z " fill="#D1CDCD" transform="translate(217,282)"/>
<path d="M0 0 C1.65 0 3.3 0 5 0 C5 0.66 5 1.32 5 2 C14.24 1.67 23.48 1.34 33 1 C32 3 32 3 28.9296875 4.109375 C25.00908298 5.12901208 21.16075294 5.30448461 17.125 5.25 C16.42826172 5.24613281 15.73152344 5.24226563 15.01367188 5.23828125 C9.74005612 5.14997885 5.0556969 4.44448483 0 3 C0 2.01 0 1.02 0 0 Z " fill="#D1C9C9" transform="translate(159,259)"/>
<path d="M0 0 C4.77086951 1.78232484 9.20568457 4.14660992 13.65234375 6.609375 C17.93814612 8.85117932 21.200091 9.33145152 26 9 C25.01 10.65 24.02 12.3 23 14 C17.65155992 13.46515599 13.64203897 11.53309233 9 9 C9 8.34 9 7.68 9 7 C7.68 7 6.36 7 5 7 C5 6.34 5 5.68 5 5 C4.38125 4.71125 3.7625 4.4225 3.125 4.125 C1 3 1 3 -1 1 C-0.67 0.67 -0.34 0.34 0 0 Z " fill="#CDC9CA" transform="translate(91,163)"/>
<path d="M0 0 C5.36366583 4.59742785 8.2401395 11.25386809 10 18 C10.25 21.25 10.25 21.25 10 24 C9.34 24.66 8.68 25.32 8 26 C7.82984375 25.46632812 7.6596875 24.93265625 7.484375 24.3828125 C5.79993194 19.20404606 3.89469496 14.17849374 1.76953125 9.1640625 C1 7 1 7 1 4 C0.34 4 -0.32 4 -1 4 C-0.67 2.68 -0.34 1.36 0 0 Z " fill="#C8C1C2" transform="translate(205,193)"/>
<path d="M0 0 C3.625 1.5 3.625 1.5 6 3 C6 3.66 6 4.32 6 5 C5.38125 4.67 4.7625 4.34 4.125 4 C-0.7569629 2.43777187 -6.31582304 1.98202949 -11.18359375 3.828125 C-13.85159811 5.54941813 -14.85920818 7.44813082 -15.6328125 10.48046875 C-15.79523438 11.37378906 -15.95765625 12.26710938 -16.125 13.1875 C-16.29257813 14.08855469 -16.46015625 14.98960938 -16.6328125 15.91796875 C-16.75398438 16.60503906 -16.87515625 17.29210937 -17 18 C-17.66 18 -18.32 18 -19 18 C-20.4179174 12.71503514 -19.64331557 9.75796803 -17 5 C-11.49288345 -0.10415681 -7.32823167 -0.67231483 0 0 Z " fill="#CCC7C8" transform="translate(89,56)"/>
<path d="M0 0 C0.66 1.32 1.32 2.64 2 4 C1.34 4 0.68 4 0 4 C0 5.98 0 7.96 0 10 C-0.99 10.33 -1.98 10.66 -3 11 C-4.29235715 15.91502758 -4.11135517 20.77290102 -4.0625 25.8125 C-4.05798828 26.69615234 -4.05347656 27.57980469 -4.04882812 28.49023438 C-4.03709866 30.66018559 -4.01916495 32.83010172 -4 35 C-6 33 -6 33 -6.1953125 29.0859375 C-6.18200376 27.51550649 -6.15813602 25.94513779 -6.125 24.375 C-6.11597656 23.57320312 -6.10695312 22.77140625 -6.09765625 21.9453125 C-6.07406223 19.96341477 -6.03819065 17.98167019 -6 16 C-6.66 16 -7.32 16 -8 16 C-6.25267359 9.73519555 -4.02879721 5.11766132 0 0 Z " fill="#D2CECE" transform="translate(62,125)"/>
<path d="M0 0 C1.32 0.33 2.64 0.66 4 1 C4.16435547 2.35931641 4.16435547 2.35931641 4.33203125 3.74609375 C5.17088845 10.19097221 6.07279488 16.18517405 8.51171875 22.23046875 C9 24 9 24 8 27 C2.03840614 18.23964261 0.65426499 10.48545738 0 0 Z " fill="#C6BEC0" transform="translate(99,243)"/>
<path d="M0 0 C3.58942982 1.74742006 6.66898672 3.94966031 9.87890625 6.30859375 C10.49056641 6.75138672 11.10222656 7.19417969 11.73242188 7.65039062 C12.91047576 8.50495728 14.08560083 9.36358047 15.25732422 10.22680664 C16.56122975 11.18380715 17.88043332 12.11991804 19.203125 13.05078125 C21.19282217 14.67915327 21.47100754 15.86695312 21.81640625 18.37109375 C20.82640625 18.37109375 19.83640625 18.37109375 18.81640625 18.37109375 C18.15640625 16.72109375 17.49640625 15.07109375 16.81640625 13.37109375 C15.82640625 13.37109375 14.83640625 13.37109375 13.81640625 13.37109375 C13.81640625 12.71109375 13.81640625 12.05109375 13.81640625 11.37109375 C11.34140625 10.87609375 11.34140625 10.87609375 8.81640625 10.37109375 C8.81640625 9.71109375 8.81640625 9.05109375 8.81640625 8.37109375 C8.15640625 8.37109375 7.49640625 8.37109375 6.81640625 8.37109375 C6.81640625 7.71109375 6.81640625 7.05109375 6.81640625 6.37109375 C5.16640625 6.37109375 3.51640625 6.37109375 1.81640625 6.37109375 C1.48640625 5.38109375 1.15640625 4.39109375 0.81640625 3.37109375 C0.15640625 3.37109375 -0.50359375 3.37109375 -1.18359375 3.37109375 C-1.18359375 2.71109375 -1.18359375 2.05109375 -1.18359375 1.37109375 C-2.17359375 1.04109375 -3.16359375 0.71109375 -4.18359375 0.37109375 C-2.18359375 -0.62890625 -2.18359375 -0.62890625 0 0 Z " fill="#D3D0D1" transform="translate(98.18359375,61.62890625)"/>
<path d="M0 0 C0.66 0 1.32 0 2 0 C4.70611558 8.11834675 2.4899341 16.56845598 0.5 24.625 C0.26152344 25.62917969 0.02304688 26.63335937 -0.22265625 27.66796875 C-0.80517665 30.11455443 -1.39772347 32.55821717 -2 35 C-2.66 35 -3.32 35 -4 35 C-5.36230825 30.91307525 -3.88987703 28.16183523 -2.5625 24.25 C0.1001492 15.94837781 0.56882647 8.68408409 0 0 Z " fill="#B7B1B1" transform="translate(247,125)"/>
<path d="M0 0 C3.384897 0.91483703 4.76110439 1.66225103 6.8125 4.5625 C9.23142776 11.56465931 7.91690883 18.77934294 7 26 C6.34 26 5.68 26 5 26 C4.67 19.73 4.34 13.46 4 7 C3.34 6.67 2.68 6.34 2 6 C2 5.01 2 4.02 2 3 C0.68 2.67 -0.64 2.34 -2 2 C-1.34 1.34 -0.68 0.68 0 0 Z " fill="#BEBABB" transform="translate(122,226)"/>
<path d="M0 0 C0.33 0.66 0.66 1.32 1 2 C1.66 2 2.32 2 3 2 C2.64755962 8.72067341 1.86046733 13.92150691 -1 20 C-1.39764263 21.98821313 -1.75455166 23.98732362 -2 26 C-2.99 25.67 -3.98 25.34 -5 25 C-3.5460901 16.61863707 -1.81951737 8.30912931 0 0 Z " fill="#C4C1C1" transform="translate(221,130)"/>
<path d="M0 0 C6.57529745 1.84930241 12.05015367 7.00585027 15.5625 12.75 C17 16 17 16 16 19 C15.731875 18.360625 15.46375 17.72125 15.1875 17.0625 C14.11332248 14.66868314 14.11332248 14.66868314 11 14 C9.8125 10.9375 9.8125 10.9375 9 8 C8.01 8 7.02 8 6 8 C4.1409877 6.42698959 3.09190042 5.18380083 2 3 C1.34 3 0.68 3 0 3 C0 2.01 0 1.02 0 0 Z " fill="#CECACA" transform="translate(231,105)"/>
<path d="M0 0 C3.10659192 0.78234794 6.20977255 1.57747583 9.3125 2.375 C10.19357422 2.59671875 11.07464844 2.8184375 11.98242188 3.046875 C12.82998047 3.26601563 13.67753906 3.48515625 14.55078125 3.7109375 C15.33106689 3.90993652 16.11135254 4.10893555 16.9152832 4.31396484 C19 5 19 5 22 7 C21.34 7.66 20.68 8.32 20 9 C19.01 9 18.02 9 17 9 C17 8.34 17 7.68 17 7 C16.030625 7.061875 15.06125 7.12375 14.0625 7.1875 C9.54727965 7.17826642 4.93740535 6.26443055 1 4 C0.38623047 1.93457031 0.38623047 1.93457031 0 0 Z " fill="#D5D3D3" transform="translate(181,272)"/>
<path d="M0 0 C0.66 0 1.32 0 2 0 C1.03644647 14.78132118 1.03644647 14.78132118 0 21 C-0.99 21.33 -1.98 21.66 -3 22 C-3.33608711 13.94635715 -3.0517291 7.50216736 0 0 Z " fill="#C8BFBF" transform="translate(92,202)"/>
<path d="M0 0 C0.66 1.32 1.32 2.64 2 4 C0.9171875 4.5878125 0.9171875 4.5878125 -0.1875 5.1875 C-4.31793566 7.84933631 -7.28079599 10.92119398 -10 15 C-10.66 15 -11.32 15 -12 15 C-12 15.99 -12 16.98 -12 18 C-12.66 18 -13.32 18 -14 18 C-14.66 19.32 -15.32 20.64 -16 22 C-16.66 21.67 -17.32 21.34 -18 21 C-16.69311561 17.17518503 -15.18953972 14.82788401 -12.3046875 12.01171875 C-11.58925781 11.30595703 -10.87382812 10.60019531 -10.13671875 9.87304688 C-9.39035156 9.15181641 -8.64398438 8.43058594 -7.875 7.6875 C-6.74384766 6.57665039 -6.74384766 6.57665039 -5.58984375 5.44335938 C-3.73316465 3.62193367 -1.86984148 1.80789464 0 0 Z " fill="#D2CBCB" transform="translate(188,109)"/>
<path d="M0 0 C3.09151422 1.54575711 3.21098411 4.04950433 4.3125 7.25 C6.22231985 12.42408167 7.73688924 15.56582744 12 19 C12.33 19.66 12.66 20.32 13 21 C9.89867022 20.68407506 8.41220808 20.45035826 6.26953125 18.109375 C5.78871094 17.33078125 5.30789062 16.5521875 4.8125 15.75 C4.32394531 14.98171875 3.83539063 14.2134375 3.33203125 13.421875 C0.76798629 8.75997507 -0.24893367 5.35207392 0 0 Z " fill="#C6BCBC" transform="translate(244,329)"/>
<path d="M0 0 C6.625 -0.125 6.625 -0.125 10 1 C9.91266027 3.08410658 9.80447722 5.16734669 9.6875 7.25 C9.62949219 8.41015625 9.57148438 9.5703125 9.51171875 10.765625 C8.98288197 14.10819638 8.26227667 15.5497057 6 18 C6 16.35 6 14.7 6 13 C5.01 13.495 5.01 13.495 4 14 C4.66 10.7 5.32 7.4 6 4 C4.02 3.01 2.04 2.02 0 1 C0 0.67 0 0.34 0 0 Z " fill="#CFCACA" transform="translate(259,239)"/>
<path d="M0 0 C0.99 0.33 1.98 0.66 3 1 C3 1.66 3 2.32 3 3 C3.99 3.33 4.98 3.66 6 4 C6.33 4.99 6.66 5.98 7 7 C8.98567708 7.1953125 10.97135417 7.390625 12.95703125 7.5859375 C15 8 15 8 18 10 C19.98799818 10.70164642 21.98698517 11.37372872 24 12 C20.04791118 13.5177598 17.04127434 12.48752815 13.0625 11.375 C11.85722656 11.05273438 10.65195313 10.73046875 9.41015625 10.3984375 C5.608778 8.83956761 3.63566183 7.11886649 1 4 C0.1875 1.6875 0.1875 1.6875 0 0 Z " fill="#CAC3C4" transform="translate(232,225)"/>
<path d="M0 0 C0.99 0.33 1.98 0.66 3 1 C2.773125 1.886875 2.54625 2.77375 2.3125 3.6875 C1.93609787 7.67736256 2.76646597 8.77378418 5 12 C5.69822617 13.65369357 6.37498605 15.31727014 7 17 C5.35 16.67 3.7 16.34 2 16 C2 14.68 2 13.36 2 12 C0.68 11.34 -0.64 10.68 -2 10 C-1.85950482 8.52031676 -1.71245174 7.04125484 -1.5625 5.5625 C-1.48128906 4.73878906 -1.40007812 3.91507813 -1.31640625 3.06640625 C-1 1 -1 1 0 0 Z " fill="#CFCBCB" transform="translate(81,144)"/>
<path d="M0 0 C0.66 0 1.32 0 2 0 C4.21452021 4.35296911 4.07786638 8.08004634 3.625 12.8125 C3.56828125 13.50537109 3.5115625 14.19824219 3.453125 14.91210938 C3.31269396 16.60898446 3.15780593 18.30465248 3 20 C2.01 19.67 1.02 19.34 0 19 C0 12.73 0 6.46 0 0 Z " fill="#C7C2C2" transform="translate(231,204)"/>
<path d="M0 0 C1.70840281 1.63412443 2.93453047 2.86906094 4 5 C6.02463255 5.65213292 6.02463255 5.65213292 8 6 C8 6.66 8 7.32 8 8 C11.465 7.505 11.465 7.505 15 7 C15 6.67 15 6.34 15 6 C16.65 6 18.3 6 20 6 C19.67 6.99 19.34 7.98 19 9 C13.53723127 10.82092291 8.74072761 10.80819496 3.5 8.375 C0.55169677 5.57411193 0.18169166 3.99721657 0 0 Z " fill="#CDC7C7" transform="translate(137,75)"/>
<path d="M0 0 C0.33 0.99 0.66 1.98 1 3 C1.66 3 2.32 3 3 3 C3.26442904 10.59498961 2.60881575 17.57359158 1 25 C0.67 25 0.34 25 0 25 C0 16.75 0 8.5 0 0 Z " fill="#C4BBBD" transform="translate(303,248)"/>
<path d="M0 0 C0.33 0 0.66 0 1 0 C1.23268915 6.28260706 0.40454548 11.88019467 -1 18 C-1.99 18 -2.98 18 -4 18 C-4 15.69 -4 13.38 -4 11 C-3.34 11 -2.68 11 -2 11 C-2.061875 9.1128125 -2.061875 9.1128125 -2.125 7.1875 C-2.2390374 3.70935927 -2.05925681 3.08888522 0 0 Z " fill="#C0B9BB" transform="translate(303,274)"/>
<path d="M0 0 C2.97 0.495 2.97 0.495 6 1 C6 1.66 6 2.32 6 3 C6.556875 3.12375 7.11375 3.2475 7.6875 3.375 C10.28715346 4.07760904 12.598062 4.76657238 15 6 C15.625 8.0625 15.625 8.0625 16 10 C16.99 10.33 17.98 10.66 19 11 C18.01 11.33 17.02 11.66 16 12 C13.73046875 10.671875 13.73046875 10.671875 11.1875 8.75 C7.54735931 6.07985288 4.11365669 3.8403201 0 2 C0 1.34 0 0.68 0 0 Z " fill="#C3BFBF" transform="translate(165,196)"/>
<path d="M0 0 C2 2 2 2 3.1875 4.375 C4.98802898 6.98266266 5.87897154 7.67745353 8.5625 9.125 C12 11 12 11 14 14 C7.99103991 12.35755091 3.19562531 10.74768127 -1 6 C-0.875 2.6875 -0.875 2.6875 0 0 Z " fill="#CDC4C6" transform="translate(143,246)"/>
<path d="M0 0 C2.32112993 0.89850191 4.63018957 1.81720978 6.9375 2.75 C7.59685547 3.00265625 8.25621094 3.2553125 8.93554688 3.515625 C13.78929937 5.50690808 13.78929937 5.50690808 14.94140625 8.203125 C14.96074219 8.79609375 14.98007813 9.3890625 15 10 C13 9.33333333 11 8.66666667 9 8 C9 7.34 9 6.68 9 6 C6.03 5.67 3.06 5.34 0 5 C0 3.35 0 1.7 0 0 Z " fill="#D4CFD0" transform="translate(171,169)"/>
<path d="M0 0 C2.00317083 3.00475625 3.04325893 5.68935172 4.21875 9.0625 C5.03159143 11.26761961 5.03159143 11.26761961 7 14 C7 14.99 7 15.98 7 17 C4.4687286 16.00557195 3.2142012 15.33650744 1.734375 13.01171875 C-1.63411541 5.05833862 -1.63411541 5.05833862 -1 1 C-0.67 0.67 -0.34 0.34 0 0 Z " fill="#C6C1C1" transform="translate(91,224)"/>
<path d="M0 0 C1.67542976 0.28604898 3.34385343 0.61781233 5 1 C5 1.66 5 2.32 5 3 C5.66 3.33 6.32 3.66 7 4 C5.35 5.98 3.7 7.96 2 10 C1.01 9.67 0.02 9.34 -1 9 C-1.09765625 2.84765625 -1.09765625 2.84765625 -1 1 C-0.67 0.67 -0.34 0.34 0 0 Z " fill="#DCD8D7" transform="translate(178,154)"/>
<path d="M0 0 C1.32 0.33 2.64 0.66 4 1 C2.87224426 4.38326722 1.64296752 5.66796984 -1 8 C-1.99 8.33 -2.98 8.66 -4 9 C-4.33 9.66 -4.66 10.32 -5 11 C-6.32 11 -7.64 11 -9 11 C-7.8829081 7.98385187 -6.3874224 6.35491331 -3.9375 4.375 C-0.99175287 2.32880603 -0.99175287 2.32880603 0 0 Z " fill="#C9C6C6" transform="translate(255,273)"/>
<path d="M0 0 C1.0209375 0.2165625 1.0209375 0.2165625 2.0625 0.4375 C0.02311173 2.53887575 -2.09922101 4.41011632 -4.375 6.25 C-7.64066657 9.01059526 -9.75671541 11.77378188 -11.9375 15.4375 C-12.5975 15.1075 -13.2575 14.7775 -13.9375 14.4375 C-13.9375 13.7775 -13.9375 13.1175 -13.9375 12.4375 C-13.2775 12.4375 -12.6175 12.4375 -11.9375 12.4375 C-11.6590625 11.4165625 -11.6590625 11.4165625 -11.375 10.375 C-9.02481582 5.57244973 -5.49599227 0.81855204 0 0 Z " fill="#CDC7C6" transform="translate(133.9375,191.5625)"/>
<path d="M0 0 C0.66 0 1.32 0 2 0 C2 0.66 2 1.32 2 2 C2.66 2 3.32 2 4 2 C4 2.66 4 3.32 4 4 C4.57234375 4.10441406 5.1446875 4.20882812 5.734375 4.31640625 C8.36985768 5.11159499 10.06031308 6.27901491 12.25 7.9375 C12.95640625 8.46214844 13.6628125 8.98679687 14.390625 9.52734375 C14.92171875 10.01332031 15.4528125 10.49929687 16 11 C16 11.66 16 12.32 16 13 C12.28575353 11.67207471 9.42361479 10.04416905 6.3125 7.625 C5.54550781 7.03976563 4.77851562 6.45453125 3.98828125 5.8515625 C1.99415426 3.99455623 1.02912944 2.49852815 0 0 Z " fill="#CEC6C8" transform="translate(71,75)"/>
<path d="M0 0 C3.530947 1.84572229 6.36923083 4.22223443 8.75 7.4375 C8.75 8.4275 8.75 9.4175 8.75 10.4375 C4.91444775 8.8748676 2.61390275 6.37300032 -0.25 3.4375 C-1.56175986 2.40936389 -2.8869893 1.39665568 -4.25 0.4375 C-2.25 -0.5625 -2.25 -0.5625 0 0 Z " fill="#D2CECD" transform="translate(195.25,182.5625)"/>
<path d="M0 0 C0 0.33 0 0.66 0 1 C-2.64 1.66 -5.28 2.32 -8 3 C-8 3.66 -8 4.32 -8 5 C-8.66 5 -9.32 5 -10 5 C-10.33 6.98 -10.66 8.96 -11 11 C-11.99 11 -12.98 11 -14 11 C-13.49607061 6.59061785 -12.0379639 4.21156184 -9 1 C-5.7521503 -1.30492559 -3.77190837 -1.04775233 0 0 Z " fill="#B9B4B4" transform="translate(141,27)"/>
<path d="M0 0 C3.7606782 0.2148959 4.97108473 0.97239906 7.75 3.625 C10.26943042 6.87893522 10.75371513 9.89525218 11 14 C10.34 14 9.68 14 9 14 C8.80664062 13.43410156 8.61328125 12.86820313 8.4140625 12.28515625 C8.15367187 11.55167969 7.89328125 10.81820312 7.625 10.0625 C7.24214844 8.96615234 7.24214844 8.96615234 6.8515625 7.84765625 C6.14728587 5.81317884 6.14728587 5.81317884 4 5 C4 4.34 4 3.68 4 3 C2.68 2.67 1.36 2.34 0 2 C0 1.34 0 0.68 0 0 Z " fill="#C4BFBE" transform="translate(206,32)"/>
<path d="M0 0 C0 0.66 0 1.32 0 2 C-1.93625098 2.98163422 -3.87404539 3.96022454 -5.8125 4.9375 C-7.43091797 5.75541016 -7.43091797 5.75541016 -9.08203125 6.58984375 C-12 8 -12 8 -15 9 C-13.57183465 5.40655171 -12.00386022 4.06852278 -8.625 2.25 C-7.85414063 1.82203125 -7.08328125 1.3940625 -6.2890625 0.953125 C-4 0 -4 0 0 0 Z " fill="#BFB8B9" transform="translate(204,102)"/>
<path d="M0 0 C0.66 0.99 1.32 1.98 2 3 C-0.97 6.3 -3.94 9.6 -7 13 C-7.66 12.67 -8.32 12.34 -9 12 C-8 9 -8 9 -5.4375 6.5 C-2.65094993 4.2239365 -2.65094993 4.2239365 -3 1 C-2.01 0.67 -1.02 0.34 0 0 Z " fill="#D1CCCD" transform="translate(208,243)"/>
<path d="M0 0 C0 0.66 0 1.32 0 2 C-2.99407823 3.72262035 -5.17749593 4.27306023 -8.625 4.25 C-9.40101563 4.25515625 -10.17703125 4.2603125 -10.9765625 4.265625 C-13 4 -13 4 -15 2 C-13.20583606 0.20583606 -10.49354064 0.61961125 -8.0625 0.4375 C-6.98097656 0.35371094 -5.89945313 0.26992187 -4.78515625 0.18359375 C-3.19238735 0.07860057 -1.59622565 0 0 0 Z " fill="#C9C5C5" transform="translate(199,87)"/>
<path d="M0 0 C5.89958485 5.74831344 5.89958485 5.74831344 6.16796875 9.09375 C6.17441406 9.8878125 6.18085937 10.681875 6.1875 11.5 C6.20167969 12.2940625 6.21585937 13.088125 6.23046875 13.90625 C6 16 6 16 4 18 C3.87882812 17.20335938 3.75765625 16.40671875 3.6328125 15.5859375 C2.38116525 7.65498622 2.38116525 7.65498622 0 0 Z " fill="#B7B3B3" transform="translate(119,77)"/>
<path d="M0 0 C-1.155 0.53625 -2.31 1.0725 -3.5 1.625 C-8.08467269 3.90096251 -12.0098795 6.81639322 -16 10 C-15.875 7.75 -15.875 7.75 -15 5 C-10.27714164 1.24318085 -5.99153702 -1.75701191 0 0 Z " fill="#C8C2C2" transform="translate(215,128)"/>
<path d="M0 0 C3.63 1.32 7.26 2.64 11 4 C10.67 4.99 10.34 5.98 10 7 C8.948125 6.5359375 8.948125 6.5359375 7.875 6.0625 C4.91063343 4.96697322 2.12301892 4.43577008 -1 4 C-0.67 2.68 -0.34 1.36 0 0 Z " fill="#CCC7C7" transform="translate(127,116)"/>
<path d="M0 0 C0.99 0.495 0.99 0.495 2 1 C2.144375 2.0725 2.28875 3.145 2.4375 4.25 C3.14399702 8.95998013 4.66358304 11.66358304 8 15 C7.01 15.495 7.01 15.495 6 16 C0.05446359 10.20691325 0.05446359 10.20691325 -0.09765625 6.8359375 C-0.08605469 6.02382812 -0.07445312 5.21171875 -0.0625 4.375 C-0.05347656 3.55773437 -0.04445312 2.74046875 -0.03515625 1.8984375 C-0.02355469 1.27195312 -0.01195312 0.64546875 0 0 Z " fill="#B6B1B1" transform="translate(176,73)"/>
<path d="M0 0 C2.475 0.495 2.475 0.495 5 1 C5.33 3.64 5.66 6.28 6 9 C4.68 8.67 3.36 8.34 2 8 C1.34 5.36 0.68 2.72 0 0 Z " fill="#C9C1C1" transform="translate(239,317)"/>
<path d="M0 0 C-0.33 0.99 -0.66 1.98 -1 3 C-1.66 3 -2.32 3 -3 3 C-3 3.66 -3 4.32 -3 5 C-7.56830973 5.31147566 -9.50007882 4.89884776 -13 2 C-11.20873548 1.66451233 -9.41697413 1.33167645 -7.625 1 C-6.62726563 0.814375 -5.62953125 0.62875 -4.6015625 0.4375 C-2 0 -2 0 0 0 Z " fill="#D3CFCF" transform="translate(245,283)"/>
<path d="M0 0 C1.875 0.5625 1.875 0.5625 4 2 C5.375 5.375 5.375 5.375 6 9 C5.0390625 11.2265625 5.0390625 11.2265625 4 13 C3.32942113 11.2097939 2.6636531 9.41778511 2 7.625 C1.62875 6.62726563 1.2575 5.62953125 0.875 4.6015625 C0 2 0 2 0 0 Z " fill="#C8C3C2" transform="translate(253,190)"/>
<path d="M0 0 C1.65 0 3.3 0 5 0 C5.66 1.32 6.32 2.64 7 4 C7.66 4 8.32 4 9 4 C9 4.66 9 5.32 9 6 C9.66 6.33 10.32 6.66 11 7 C6.87248551 6.39301257 3.6678852 4.96189209 0 3 C0 2.01 0 1.02 0 0 Z " fill="#D1CBCB" transform="translate(152,157)"/>
<path d="M0 0 C1.48206495 0.254496 2.96068615 0.52911762 4.4375 0.8125 C5.67306641 1.03873047 5.67306641 1.03873047 6.93359375 1.26953125 C7.95646484 1.63111328 7.95646484 1.63111328 9 2 C9.33 2.99 9.66 3.98 10 5 C6.25 6.125 6.25 6.125 4 5 C4 4.34 4 3.68 4 3 C2.68 3 1.36 3 0 3 C0 2.01 0 1.02 0 0 Z " fill="#D4D0D0" transform="translate(205,279)"/>
<path d="M0 0 C0.66 1.32 1.32 2.64 2 4 C1.29875 4.391875 0.5975 4.78375 -0.125 5.1875 C-3.36074432 7.22742577 -6.10257782 9.50686929 -9 12 C-8.45015228 8.12488273 -6.72444669 6.40423494 -3.9375 3.75 C-3.20402344 3.04359375 -2.47054687 2.3371875 -1.71484375 1.609375 C-1.14894531 1.07828125 -0.58304688 0.5471875 0 0 Z " fill="#CBC5C6" transform="translate(188,109)"/>
<path d="M0 0 C2.67927341 4.01891012 2.15601248 6.24161923 2 11 C2.66 11.33 3.32 11.66 4 12 C2.625 14 2.625 14 1 16 C0.34 16 -0.32 16 -1 16 C-0.67 10.72 -0.34 5.44 0 0 Z " fill="#D2CDCD" transform="translate(159,64)"/>
<path d="M0 0 C0.66 0 1.32 0 2 0 C2.93619813 3.15506142 3.1057123 5.96586502 3.0625 9.25 C3.05347656 10.14203125 3.04445312 11.0340625 3.03515625 11.953125 C3.02355469 12.62859375 3.01195312 13.3040625 3 14 C2.34 14 1.68 14 1 14 C0.67 9.38 0.34 4.76 0 0 Z " fill="#C0B8B9" transform="translate(160,61)"/>
<path d="M0 0 C1.44314836 2.88629672 0.70986745 4.9095051 0.1875 8.0625 C-0.06966797 9.68865234 -0.06966797 9.68865234 -0.33203125 11.34765625 C-0.55246094 12.22292969 -0.77289063 13.09820312 -1 14 C-1.99 14.495 -1.99 14.495 -3 15 C-2.67 13.02 -2.34 11.04 -2 9 C-2.66 9 -3.32 9 -4 9 C-2.25 2.25 -2.25 2.25 0 0 Z " fill="#C3BBBB" transform="translate(265,251)"/>
<path d="M0 0 C4.39381209 0.50214995 6.83419795 1.92213689 10 5 C10.8125 7.25 10.8125 7.25 11 9 C10.01 9 9.02 9 8 9 C7.34 7.35 6.68 5.7 6 4 C5.01 4 4.02 4 3 4 C3 3.34 3 2.68 3 2 C2.01 1.67 1.02 1.34 0 1 C0 0.67 0 0.34 0 0 Z " fill="#C3C0C1" transform="translate(109,71)"/>
<path d="M0 0 C0.33 0 0.66 0 1 0 C1 3.3 1 6.6 1 10 C0.01 10.495 0.01 10.495 -1 11 C-2.50662097 7.98675805 -2.17770373 5.31713623 -2 2 C-1.34 1.34 -0.68 0.68 0 0 Z " fill="#BEB6BA" transform="translate(142,239)"/>
<path d="M0 0 C0.99 0.33 1.98 0.66 3 1 C3 3.97 3 6.94 3 10 C2.34 10 1.68 10 1 10 C-0.60725635 6.78548731 -0.05748185 3.56387464 0 0 Z " fill="#BFB9B9" transform="translate(242,159)"/>
<path d="M0 0 C-0.33 1.32 -0.66 2.64 -1 4 C-1.94875 3.835 -2.8975 3.67 -3.875 3.5 C-6.80168901 2.9473365 -6.80168901 2.9473365 -9 3 C-9.33 2.01 -9.66 1.02 -10 0 C-6.30581799 -1.231394 -3.7943739 -0.64432764 0 0 Z " fill="#DAD2D4" transform="translate(170,164)"/>
<path d="M0 0 C3.19149873 0.12043391 6.17868801 0.52808343 9.3125 1.125 C7.3125 3.125 7.3125 3.125 3.9375 3.375 C0.67726676 3.15015633 -0.99382641 2.8489511 -3.6875 1.125 C-2.6875 0.125 -2.6875 0.125 0 0 Z " fill="#C5C1C3" transform="translate(228.6875,284.875)"/>
<path d="M0 0 C2 1.5625 2 1.5625 4 4 C4.25 7.75 4.25 7.75 4 11 C3.34 10.67 2.68 10.34 2 10 C1.375 6.9375 1.375 6.9375 1 4 C0.34 4 -0.32 4 -1 4 C-0.67 2.68 -0.34 1.36 0 0 Z " fill="#CFC9C9" transform="translate(205,193)"/>
<path d="M0 0 C1.0625 1.8125 1.0625 1.8125 2 4 C1.67 4.99 1.34 5.98 1 7 C0.01 7.33 -0.98 7.66 -2 8 C-4.1875 6.5625 -4.1875 6.5625 -6 5 C-5.01 4.67 -4.02 4.34 -3 4 C-1.31461399 2.00334686 -1.31461399 2.00334686 0 0 Z " fill="#D8D5D5" transform="translate(170,128)"/>
<path d="M0 0 C3.375 0.3125 3.375 0.3125 7 1 C7.66 1.99 8.32 2.98 9 4 C6.69 4 4.38 4 2 4 C1.34 2.68 0.68 1.36 0 0 Z " fill="#C7C3C4" transform="translate(262,211)"/>
<path d="M0 0 C0.66 0.99 1.32 1.98 2 3 C0.7934375 3.4021875 0.7934375 3.4021875 -0.4375 3.8125 C-1.283125 4.204375 -2.12875 4.59625 -3 5 C-3.33 5.99 -3.66 6.98 -4 8 C-4.66 8 -5.32 8 -6 8 C-5.25 3.25 -5.25 3.25 -3 1 C-2.01 0.67 -1.02 0.34 0 0 Z " fill="#D0CECE" transform="translate(195,35)"/>
<path d="M0 0 C6.625 -0.25 6.625 -0.25 10 2 C9.34 2.66 8.68 3.32 8 4 C7.01 4 6.02 4 5 4 C5 3.34 5 2.68 5 2 C3.35 1.67 1.7 1.34 0 1 C0 0.67 0 0.34 0 0 Z " fill="#D1CCCD" transform="translate(193,277)"/>
<path d="M0 0 C2.03144641 0.93446535 4.03533587 1.93224776 6 3 C6 3.99 6 4.98 6 6 C4 5.33333333 2 4.66666667 0 4 C0 3.34 0 2.68 0 2 C-0.66 1.67 -1.32 1.34 -2 1 C-1.34 0.67 -0.68 0.34 0 0 Z " fill="#C7C5C5" transform="translate(180,173)"/>
<path d="M0 0 C0.66 0 1.32 0 2 0 C2 2.97 2 5.94 2 9 C1.34 9 0.68 9 0 9 C-1.125 3.375 -1.125 3.375 0 0 Z " fill="#C4BABC" transform="translate(70,65)"/>
<path d="M0 0 C2.64 0 5.28 0 8 0 C7.34 1.32 6.68 2.64 6 4 C4.02 3.34 2.04 2.68 0 2 C0 1.34 0 0.68 0 0 Z " fill="#D3CDCD" transform="translate(195,304)"/>
<path d="M0 0 C6.625 -0.125 6.625 -0.125 10 1 C9.67 1.99 9.34 2.98 9 4 C5.85262818 3.30058404 2.97411124 2.23921302 0 1 C0 0.67 0 0.34 0 0 Z " fill="#CBBABF" transform="translate(259,239)"/>
<path d="M0 0 C4.455 0.99 4.455 0.99 9 2 C9 2.99 9 3.98 9 5 C8.01 4.34 7.02 3.68 6 3 C5.67 3.66 5.34 4.32 5 5 C2.5 3.625 2.5 3.625 0 2 C0 1.34 0 0.68 0 0 Z " fill="#CAC6C6" transform="translate(127,145)"/>
<path d="M0 0 C-2 2 -2 2 -3.9453125 2.1953125 C-5.96354167 2.13020833 -7.98177083 2.06510417 -10 2 C-10 1.34 -10 0.68 -10 0 C-6.30458414 -0.95024979 -3.69541586 -0.95024979 0 0 Z " fill="#CABFC1" transform="translate(269,350)"/>
<path d="M0 0 C5.875 4.625 5.875 4.625 7 8 C4.625 7.375 4.625 7.375 2 6 C0.6875 2.875 0.6875 2.875 0 0 Z " fill="#BFBBBC" transform="translate(129,253)"/>
<path d="M0 0 C0.66 0 1.32 0 2 0 C1.67 2.31 1.34 4.62 1 7 C0.01 7.33 -0.98 7.66 -2 8 C-1.125 1.125 -1.125 1.125 0 0 Z " fill="#CBC7CA" transform="translate(92,202)"/>
<path d="M0 0 C0.9075 0.391875 1.815 0.78375 2.75 1.1875 C2.42 1.8475 2.09 2.5075 1.75 3.1875 C1.09 2.8575 0.43 2.5275 -0.25 2.1875 C-0.58 2.8475 -0.91 3.5075 -1.25 4.1875 C-3.23 3.5275 -5.21 2.8675 -7.25 2.1875 C-4.52596974 -0.53653026 -3.86366821 -0.96591705 0 0 Z " fill="#D0CDCD" transform="translate(165.25,193.8125)"/>
<path d="M0 0 C1.65 1.65 3.3 3.3 5 5 C4.01 5.33 3.02 5.66 2 6 C-0.1875 4.6875 -0.1875 4.6875 -2 3 C-2 2.34 -2 1.68 -2 1 C-1.34 0.67 -0.68 0.34 0 0 Z " fill="#CEC6C7" transform="translate(252,344)"/>
<path d="M0 0 C0.33 0.99 0.66 1.98 1 3 C1.66 3 2.32 3 3 3 C4.0625 4.8125 4.0625 4.8125 5 7 C4.67 7.99 4.34 8.98 4 10 C0 4.5 0 4.5 0 0 Z " fill="#BDBABA" transform="translate(103,260)"/>
<path d="M0 0 C2.31 0.33 4.62 0.66 7 1 C7.33 1.99 7.66 2.98 8 4 C6.68 4 5.36 4 4 4 C4 3.34 4 2.68 4 2 C2.68 2 1.36 2 0 2 C0 1.34 0 0.68 0 0 Z " fill="#C4C1C1" transform="translate(138,261)"/>
<path d="M0 0 C0.99 0 1.98 0 3 0 C3 1.98 3 3.96 3 6 C2.01 6.33 1.02 6.66 0 7 C0 4.69 0 2.38 0 0 Z " fill="#D0C1C2" transform="translate(213,221)"/>
<path d="M0 0 C0.66 0 1.32 0 2 0 C2.66 2.31 3.32 4.62 4 7 C3.01 7.33 2.02 7.66 1 8 C0.67 5.36 0.34 2.72 0 0 Z " fill="#CDC9C9" transform="translate(231,204)"/>
<path d="M0 0 C0.99 0 1.98 0 3 0 C3.33 2.31 3.66 4.62 4 7 C3.01 6.67 2.02 6.34 1 6 C0.67 4.02 0.34 2.04 0 0 Z " fill="#CBC7C6" transform="translate(228,196)"/>
<path d="M0 0 C3 3.625 3 3.625 3 7 C1.0625 6.25 1.0625 6.25 -1 5 C-1.75 2.875 -1.75 2.875 -2 1 C-1.34 0.67 -0.68 0.34 0 0 Z " fill="#C8C4C5" transform="translate(226,188)"/>
<path d="M0 0 C2.03833424 1.2739589 4.03852126 2.61061923 6 4 C6 4.66 6 5.32 6 6 C4.02 5.34 2.04 4.68 0 4 C0 2.68 0 1.36 0 0 Z " fill="#D5D2D1" transform="translate(186,176)"/>
<path d="M0 0 C0.66 0.33 1.32 0.66 2 1 C2 2.32 2 3.64 2 5 C0.02 5 -1.96 5 -4 5 C-3 2 -3 2 0 0 Z " fill="#CFCACB" transform="translate(122,167)"/>
<path d="M0 0 C1.0326802 2.78823655 1.04509293 3.8677274 0.0625 6.75 C-0.288125 7.4925 -0.63875 8.235 -1 9 C-1.66 9 -2.32 9 -3 9 C-2.5020163 5.26512223 -2.12508244 3.18762365 0 0 Z " fill="#C3C0C0" transform="translate(59,129)"/>
<path d="M0 0 C0.6875 1.8125 0.6875 1.8125 1 4 C-0.25 5.75 -0.25 5.75 -2 7 C-2.99 7 -3.98 7 -5 7 C-5 5 -5 5 -2.5 2.375 C-1.675 1.59125 -0.85 0.8075 0 0 Z " fill="#C4BFC0" transform="translate(122,93)"/>
<path d="M0 0 C0.99 0.33 1.98 0.66 3 1 C3 3.31 3 5.62 3 8 C2.34 8 1.68 8 1 8 C0.67 5.36 0.34 2.72 0 0 Z " fill="#BEB3BA" transform="translate(132,61)"/>
<path d="M0 0 C0.33 0 0.66 0 1 0 C1.33 2.64 1.66 5.28 2 8 C1.01 8 0.02 8 -1 8 C-1.33 6.02 -1.66 4.04 -2 2 C-1.34 2 -0.68 2 0 2 C0 1.34 0 0.68 0 0 Z " fill="#CAC0C6" transform="translate(132,53)"/>
<path d="M0 0 C2.31 0.66 4.62 1.32 7 2 C7 2.66 7 3.32 7 4 C4.36 3.67 1.72 3.34 -1 3 C-0.67 2.01 -0.34 1.02 0 0 Z " fill="#D2CACA" transform="translate(162,294)"/>
<path d="M0 0 C2.475 0.99 2.475 0.99 5 2 C4.01 2.495 4.01 2.495 3 3 C3 3.66 3 4.32 3 5 C4.32 5 5.64 5 7 5 C6.67 5.66 6.34 6.32 6 7 C4.68 6.67 3.36 6.34 2 6 C2 5.34 2 4.68 2 4 C1.34 3.67 0.68 3.34 0 3 C0 2.01 0 1.02 0 0 Z " fill="#D2D0D0" transform="translate(135,258)"/>
<path d="M0 0 C1.32 0.66 2.64 1.32 4 2 C3.67 2.33 3.34 2.66 3 3 C3.99 3.66 4.98 4.32 6 5 C4.35 5 2.7 5 1 5 C1 4.34 1 3.68 1 3 C-0.32 2.67 -1.64 2.34 -3 2 C-2.01 1.34 -1.02 0.68 0 0 Z " fill="#D0CFCD" transform="translate(165,233)"/>
<path d="M0 0 C0.99 0.33 1.98 0.66 3 1 C1.68 2.65 0.36 4.3 -1 6 C-1.99 5.67 -2.98 5.34 -4 5 C-2.68 3.35 -1.36 1.7 0 0 Z " fill="#CBC6C7" transform="translate(181,158)"/>
<path d="M0 0 C2.475 0.495 2.475 0.495 5 1 C5.33 2.32 5.66 3.64 6 5 C4.125 4.75 4.125 4.75 2 4 C0.75 1.9375 0.75 1.9375 0 0 Z " fill="#C4BEBD" transform="translate(151,127)"/>
<path d="M0 0 C3.2542015 2.83430453 4.5206753 4.68607774 5 9 C1.7457985 6.16569547 0.4793247 4.31392226 0 0 Z " fill="#B7B2B2" transform="translate(243,115)"/>
<path d="M0 0 C2.625 0.9375 2.625 0.9375 5 2 C5 2.99 5 3.98 5 5 C3.68 4.67 2.36 4.34 1 4 C1 3.34 1 2.68 1 2 C0.01 1.67 -0.98 1.34 -2 1 C-1.34 0.67 -0.68 0.34 0 0 Z " fill="#CAC7C8" transform="translate(96,61)"/>
<path d="M0 0 C2.31 0.33 4.62 0.66 7 1 C5 3 5 3 2.375 3.125 C1.59125 3.08375 0.8075 3.0425 0 3 C0 2.01 0 1.02 0 0 Z " fill="#CBC5C6" transform="translate(147,264)"/>
<path d="M0 0 C0.99 0 1.98 0 3 0 C3 0.66 3 1.32 3 2 C4.32 2.66 5.64 3.32 7 4 C5.25 4.75 5.25 4.75 3 5 C0.75 3.0625 0.75 3.0625 -1 1 C-0.67 0.67 -0.34 0.34 0 0 Z " fill="#D0CCCC" transform="translate(74,183)"/>
<path d="M0 0 C1.32 1.32 2.64 2.64 4 4 C3.01 4.66 2.02 5.32 1 6 C0.67 5.34 0.34 4.68 0 4 C-0.99 3.67 -1.98 3.34 -3 3 C-2.67 2.34 -2.34 1.68 -2 1 C-1.34 1.33 -0.68 1.66 0 2 C0 1.34 0 0.68 0 0 Z " fill="#D6D4D5" transform="translate(88,159)"/>
<path d="M0 0 C1.74627478 2.61941217 2.38722388 4.03824877 3 7 C2.01 7.33 1.02 7.66 0 8 C-1.125 2.25 -1.125 2.25 0 0 Z " fill="#BFBABD" transform="translate(55,155)"/>
<path d="M0 0 C0.99 0.33 1.98 0.66 3 1 C2.34 2.98 1.68 4.96 1 7 C0.34 7 -0.32 7 -1 7 C-1.04254356 5.00045254 -1.04080783 2.99958364 -1 1 C-0.67 0.67 -0.34 0.34 0 0 Z " fill="#C6BDC2" transform="translate(81,144)"/>
<path d="M0 0 C0.66 0 1.32 0 2 0 C3.28317892 3.84953676 3.06643637 6.94738135 3 11 C2.67 11 2.34 11 2 11 C0.80712589 7.12315913 0 4.08378077 0 0 Z " fill="#B1ADAD" transform="translate(247,125)"/>
</svg>
