<?xml version="1.0" encoding="UTF-8"?>
<svg version="1.1" xmlns="http://www.w3.org/2000/svg" width="512" height="512">
<path d="M0 0 C0.90999756 0.87712646 0.90999756 0.87712646 1.83837891 1.77197266 C10.41382281 10.0872261 18.73873965 18.4784409 25.609375 28.30078125 C26.06828125 28.86152344 26.5271875 29.42226562 27 30 C27.66 30 28.32 30 29 30 C30.35487069 28.34134664 31.63189566 26.61898887 32.875 24.875 C54.90754261 -5.23104976 82.88707326 -32.67190132 120.8125 -39.375 C145.37231567 -42.28082574 170.9690298 -35.45533932 191 -21 C191.98871094 -20.30648437 192.97742188 -19.61296875 193.99609375 -18.8984375 C214.16689281 -4.1344989 229.94775781 15.22344237 242 37 C242.43022461 37.76231934 242.86044922 38.52463867 243.30371094 39.31005859 C264.59622246 77.24820635 277.00505607 123.169642 277.203125 166.7734375 C277.20882507 167.77726471 277.21452515 168.78109192 277.22039795 169.81533813 C277.22978875 171.93140632 277.23635817 174.04748874 277.24023438 176.16357422 C277.24986918 179.33198015 277.28092109 182.49971638 277.3125 185.66796875 C277.39954069 202.26007936 276.13895091 218.58327348 271.375 234.5625 C270.99649902 235.84737305 270.99649902 235.84737305 270.61035156 237.15820312 C266.00489919 252.06431652 259.29909868 265.25420519 249 277 C248.39414062 277.69351562 247.78828125 278.38703125 247.1640625 279.1015625 C232.79480085 294.41528266 212.06886265 301.16801215 191.5534668 301.97631836 C167.64953758 302.48898484 146.22440232 295.90547348 128 280 C127.17886719 279.30003906 126.35773438 278.60007812 125.51171875 277.87890625 C91.00877764 247.77602917 68.5335032 203.05896303 45.77978516 164.04541016 C42.63758337 158.66875377 39.45724855 153.31731745 36.21630859 147.99951172 C35.27592927 146.45360513 34.339528 144.90527827 33.40478516 143.35595703 C31.63166061 140.42009561 29.84810908 137.49078199 28.0625 134.5625 C27.49370117 133.61826172 26.92490234 132.67402344 26.33886719 131.70117188 C25.80551758 130.83169922 25.27216797 129.96222656 24.72265625 129.06640625 C24.24578369 128.28209229 23.76891113 127.49777832 23.27758789 126.68969727 C22.85598389 126.13209717 22.43437988 125.57449707 22 125 C21.34 125 20.68 125 20 125 C19.69932617 125.55647217 19.39865234 126.11294434 19.08886719 126.6862793 C12.11057413 139.58398988 4.9826345 152.38101555 -2.33251953 165.09033203 C-4.13767899 168.24024278 -5.92731169 171.39864807 -7.71484375 174.55859375 C-25.14383934 205.32827524 -42.82624063 236.10774942 -66 263 C-66.46712402 263.54688477 -66.93424805 264.09376953 -67.41552734 264.65722656 C-83.90895153 283.82257377 -104.69312902 299.2458011 -130.65625 301.484375 C-155.99009592 303.07877654 -179.79652894 298.89889416 -199.73828125 282.0078125 C-200.48464844 281.34523438 -201.23101562 280.68265625 -202 280 C-202.67417969 279.41992188 -203.34835938 278.83984375 -204.04296875 278.2421875 C-224.84663805 259.05796551 -234.06407346 227.13400601 -235.30322266 199.65307617 C-235.47282937 194.01823102 -235.47402896 188.38679367 -235.4375 182.75 C-235.43445862 181.74931488 -235.43141724 180.74862976 -235.42828369 179.71762085 C-235.34989568 162.18048063 -234.16963974 145.27160175 -231 128 C-230.79632813 126.86723633 -230.59265625 125.73447266 -230.3828125 124.56738281 C-225.65632483 99.14792367 -217.54632994 74.14836585 -206 51 C-205.62488281 50.24412598 -205.24976563 49.48825195 -204.86328125 48.70947266 C-195.68638341 30.39874263 -184.09527388 13.87310672 -170 -1 C-169.14664063 -1.90621094 -168.29328125 -2.81242187 -167.4140625 -3.74609375 C-157.20449705 -14.29207755 -145.88997154 -22.16440903 -133 -29 C-132.12085938 -29.47308594 -131.24171875 -29.94617188 -130.3359375 -30.43359375 C-84.00404302 -53.45609859 -34.5378728 -33.30327502 0 0 Z M72.95800781 39.49316406 C69.07217936 44.45209755 65.2997562 49.49579807 61.66748047 54.64355469 C60.52594292 56.25674947 59.3566757 57.85057775 58.16455078 59.42675781 C57.59591309 60.20631836 57.02727539 60.98587891 56.44140625 61.7890625 C55.92392822 62.4795166 55.4064502 63.1699707 54.87329102 63.88134766 C53.72706089 66.04189867 53.72706089 66.04189867 54.72485352 68.55566406 C56.44494093 71.85290994 58.37499265 74.99340443 60.375 78.125 C60.81851807 78.82818359 61.26203613 79.53136719 61.71899414 80.25585938 C64.01758341 83.89645976 66.33539125 87.52451389 68.66015625 91.1484375 C75.06561635 101.1668521 81.20088603 111.32662546 87.25 121.5625 C123.63402494 194.72578197 123.63402494 194.72578197 182 245 C194.10564881 246.025451 203.48083172 244.92631668 212.9296875 237.07421875 C226.13494856 223.8440421 228.03536305 202.67949959 228.1875 185 C228.04769212 136.51255438 218.52504367 81.86782883 189 42 C188.06607422 40.73349609 188.06607422 40.73349609 187.11328125 39.44140625 C173.43914096 21.66225022 156.6203224 8.47114922 134 5 C108.77015053 2.28873259 87.84006064 21.32296757 72.95800781 39.49316406 Z M-133.23046875 40.765625 C-133.81441406 41.50296875 -134.39835937 42.2403125 -135 43 C-135.69738281 43.86109375 -136.39476562 44.7221875 -137.11328125 45.609375 C-143.36137345 53.5948469 -148.30707698 62.03476625 -153 71 C-153.33354492 71.62374512 -153.66708984 72.24749023 -154.01074219 72.89013672 C-174.55821059 111.74631951 -188.81608672 171.09174167 -176 214 C-171.82373014 226.51400012 -165.84725325 236.72937493 -153.94921875 243.09765625 C-145.40830692 246.55584089 -134.84355349 246.28601689 -126.1875 243.4375 C-89.4149629 227.76307047 -66.11592547 175.88551475 -45.80078125 143.83642578 C-38.16090746 131.80279594 -30.48209132 119.79285196 -22.70947266 107.84448242 C-21.62890232 106.18326171 -20.55038053 104.52070631 -19.47412109 102.85668945 C-17.07075608 99.14625129 -14.64271625 95.46212152 -12.125 91.828125 C-11.68921631 91.18705811 -11.25343262 90.54599121 -10.80444336 89.88549805 C-9.65446636 88.19749367 -8.48620064 86.52198804 -7.31640625 84.84765625 C-5.7502453 82.15586736 -5.7502453 82.15586736 -6.37890625 79.6484375 C-8.77608915 75.73207603 -11.52356772 72.15758582 -14.375 68.5625 C-14.99987305 67.7684375 -15.62474609 66.974375 -16.26855469 66.15625 C-33.4584016 44.44459338 -52.05078325 21.64617059 -81 17 C-101.74178003 15.05397487 -120.14431259 24.95190936 -133.23046875 40.765625 Z " fill="#000000" transform="translate(235,125)"/>
</svg>
