<?xml version="1.0" encoding="UTF-8"?>
<svg version="1.1" xmlns="http://www.w3.org/2000/svg" width="58" height="67">
<path d="M0 0 C4.90273819 3.23135017 7.64874475 6.50903338 9.1875 12.125 C10.29748664 18.40435299 9.12554808 24.04916613 5.625 29.375 C5.00625 30.179375 4.3875 30.98375 3.75 31.8125 C4.471875 32.01875 5.19375 32.225 5.9375 32.4375 C11.70523533 35.25728172 14.60521061 40.62704269 17.03515625 46.35546875 C18.23963779 50.49546267 18.07061972 54.5464765 17.75 58.8125 C14 59.9375 14 59.9375 11.75 58.8125 C10.88888437 55.83240872 10.27546876 52.82627056 9.62890625 49.79296875 C8.75127521 46.8168244 7.67083635 45.19348099 5.75 42.8125 C5.75 42.1525 5.75 41.4925 5.75 40.8125 C-1.39839121 37.10592678 -7.16860132 35.94433913 -15.25 36.8125 C-20.12597237 38.41757987 -23.55700588 41.48447374 -26.25 45.8125 C-27.09367257 48.07189629 -27.82234784 50.3449113 -28.5234375 52.65234375 C-29.41149271 55.29263692 -30.69122126 57.51144567 -32.25 59.8125 C-36.125 58.9375 -36.125 58.9375 -37.25 57.8125 C-37.45209763 50.53698522 -35.64843639 44.59879253 -31.25 38.8125 C-28.72587764 36.27902904 -26.08005348 33.99648668 -23.25 31.8125 C-24.59794648 28.32588326 -24.59794648 28.32588326 -26.296875 25.00390625 C-28.42276811 20.11609463 -28.17705045 13.63374 -26.52734375 8.61328125 C-23.9129653 3.73381377 -20.41584639 0.84619942 -15.5 -1.5 C-10.00011063 -2.66343814 -5.2486442 -1.91777384 0 0 Z M-19.25 10.8125 C-19.58 11.1425 -19.91 11.4725 -20.25 11.8125 C-20.80720584 15.59353961 -21.09003776 19.29228241 -19.203125 22.70703125 C-17.42734309 24.85363821 -15.7558873 26.55955635 -13.25 27.8125 C-7.90756567 28.16282356 -4.60213461 28.2686069 -0.25 24.8125 C2.56454595 20.59068108 2.55684081 16.77219791 1.75 11.8125 C-0.50057567 8.72451326 -0.50057567 8.72451326 -3.25 6.8125 C-3.58 6.4825 -3.91 6.1525 -4.25 5.8125 C-10.94545428 4.94457074 -14.94871501 5.12370372 -19.25 10.8125 Z " fill="#C7C7C7" transform="translate(38.25,4.1875)"/>
<path d="M0 0 C3.38333494 2.2299253 5.3134445 4.58764713 7.75 7.8125 C7.42 8.4725 7.09 9.1325 6.75 9.8125 C6.42 9.4825 6.09 9.1525 5.75 8.8125 C5.42 9.4725 5.09 10.1325 4.75 10.8125 C4.09 10.8125 3.43 10.8125 2.75 10.8125 C2.75 14.1125 2.75 17.4125 2.75 20.8125 C2.42 20.8125 2.09 20.8125 1.75 20.8125 C1.73582031 20.22082031 1.72164062 19.62914063 1.70703125 19.01953125 C1.4571905 14.88027772 1.06441624 12.30948051 -1.1875 8.75 C-5.47396793 6.03815295 -9.29596777 6.04724299 -14.25 6.8125 C-16.49104088 7.55460125 -16.49104088 7.55460125 -18.25 8.8125 C-18.58 9.8025 -18.91 10.7925 -19.25 11.8125 C-20.58333333 9.14583333 -21.91666667 6.47916667 -23.25 3.8125 C-15.87173227 -2.69773623 -9.02825561 -3.29878571 0 0 Z M-21.25 3.8125 C-20.25 5.8125 -20.25 5.8125 -20.25 5.8125 Z " fill="#BCBCBC" transform="translate(38.25,4.1875)"/>
<path d="M0 0 C0 0.66 0 1.32 0 2 C1.98 1.67 3.96 1.34 6 1 C6.66 1.99 7.32 2.98 8 4 C6.9275 4.556875 5.855 5.11375 4.75 5.6875 C-1.27057516 9.18331783 -3.30894751 13.37429703 -5.2734375 19.83984375 C-6.16149271 22.48013692 -7.44122126 24.69894567 -9 27 C-12.875 26.125 -12.875 26.125 -14 25 C-14.22895999 16.75744028 -11.67229234 10.36534751 -6.40625 4.10546875 C-2.48346019 0 -2.48346019 0 0 0 Z " fill="#BDBDBD" transform="translate(15,37)"/>
<path d="M0 0 C1.32 0.33 2.64 0.66 4 1 C4.02578125 1.94101563 4.0515625 2.88203125 4.078125 3.8515625 C4.34046049 13.24820879 4.34046049 13.24820879 9 21 C7.35 21.33 5.7 21.66 4 22 C3.67 23.65 3.34 25.3 3 27 C0.19151983 25.59575991 0.07585415 23.89135802 -1 21 C-1.51626953 20.11054687 -1.51626953 20.11054687 -2.04296875 19.203125 C-3.26555693 16.3886771 -3.30091727 14.12420223 -3.3125 11.0625 C-3.32925781 10.04285156 -3.34601562 9.02320313 -3.36328125 7.97265625 C-2.95494192 4.63129895 -1.91007169 2.73659348 0 0 Z " fill="#C3C3C3" transform="translate(14,10)"/>
<path d="M0 0 C4.25906617 3.49851864 6.45367425 7.78920438 8 13 C8.29973773 16.36736611 8.25317257 19.63139829 8 23 C4.25 24.125 4.25 24.125 2 23 C1.13888437 20.01990872 0.52546876 17.01377056 -0.12109375 13.98046875 C-0.99872479 11.0043244 -2.07916365 9.38098099 -4 7 C-4 6.34 -4 5.68 -4 5 C-2.68 4.67 -1.36 4.34 0 4 C0 2.68 0 1.36 0 0 Z " fill="#BEBEBE" transform="translate(48,40)"/>
<path d="M0 0 C2.00720923 0.28674418 4.0085944 0.61866701 6 1 C5.42655063 3.86724686 5.1385485 4.8614515 3 7 C0.33871316 8.54526333 -0.84915995 9 -4 9 C-4 7 -4 7 -2 5 C-1.63837971 3.67405895 -1.30271961 2.34061543 -1 1 C-0.67 0.67 -0.34 0.34 0 0 Z " fill="#CECECE" transform="translate(19,30)"/>
<path d="M0 0 C2.0625 0.4375 2.0625 0.4375 4 1 C4.33 2.32 4.66 3.64 5 5 C4.34 5 3.68 5 3 5 C3 8.3 3 11.6 3 15 C2.67 15 2.34 15 2 15 C1.95101562 14.40832031 1.90203125 13.81664062 1.8515625 13.20703125 C1.43543133 8.80895528 0.95034405 5.03071103 -1 1 C-0.67 0.67 -0.34 0.34 0 0 Z M5 1 C5.99 1.33 6.98 1.66 8 2 C7.67 2.66 7.34 3.32 7 4 C6.34 3.01 5.68 2.02 5 1 Z " fill="#AAAAAA" transform="translate(38,10)"/>
<path d="M0 0 C2.16874252 0.50603992 3.99967627 0.99983813 6 2 C6 4.31 6 6.62 6 9 C5.01 9 4.02 9 3 9 C1.76078698 6.02588876 0.69941596 3.14737182 0 0 Z " fill="#B3B3B3" transform="translate(12,27)"/>
<path d="M0 0 C0.66 0 1.32 0 2 0 C2.66 1.65 3.32 3.3 4 5 C1.69 5.33 -0.62 5.66 -3 6 C-3 5.34 -3 4.68 -3 4 C-2.34 3.67 -1.68 3.34 -1 3 C-0.67 2.01 -0.34 1.02 0 0 Z " fill="#DADADA" transform="translate(18,33)"/>
</svg>
